<?xml version="1.0" encoding="utf-8" ?>
<svg baseProfile="full" height="300" version="1.1" width="300" xmlns="http://www.w3.org/2000/svg" xmlns:ev="http://www.w3.org/2001/xml-events" xmlns:xlink="http://www.w3.org/1999/xlink"><defs /><polygon fill="white" points="150.0,50.0 236.60254037844388,100.0 236.60254037844388,200.0 150.0,250.0 63.39745962155612,200.0 63.39745962155612,100.0" stroke="white" stroke-linejoin="round" stroke-width="18" /><polygon fill="black" points="178.8675134594813,66.66666666666669 92.26497308103743,116.66666666666669 121.13248654051871,133.33333333333334 207.7350269189626,83.33333333333334" stroke="none" /><polygon fill="black" points="92.26497308103743,116.66666666666669 121.13248654051871,133.33333333333334 121.13248654051871,166.66666666666669 150.0,183.33333333333331 150.0,216.66666666666669 92.26497308103743,183.33333333333334" stroke="none" /><polygon fill="black" points="150.0,183.33333333333331 236.60254037844388,133.33333333333334 236.60254037844388,166.66666666666669 150.0,216.66666666666669" stroke="none" /><line stroke="black" stroke-linecap="round" stroke-width="6" x1="150.0" x2="236.60254037844388" y1="50.0" y2="100.0" /><line stroke="black" stroke-linecap="round" stroke-width="6" x1="236.60254037844388" x2="236.60254037844388" y1="100.0" y2="200.0" /><line stroke="black" stroke-linecap="round" stroke-width="6" x1="236.60254037844388" x2="150.0" y1="200.0" y2="250.0" /><line stroke="black" stroke-linecap="round" stroke-width="6" x1="150.0" x2="63.39745962155612" y1="250.0" y2="200.0" /><line stroke="black" stroke-linecap="round" stroke-width="6" x1="63.39745962155612" x2="63.39745962155612" y1="200.0" y2="100.0" /><line stroke="black" stroke-linecap="round" stroke-width="6" x1="63.39745962155612" x2="150.0" y1="100.0" y2="50.0" /><line stroke="black" stroke-linecap="round" stroke-width="6" x1="150.0" x2="150.0" y1="150.0" y2="250.0" /><line stroke="black" stroke-linecap="round" stroke-width="6" x1="150.0" x2="236.60254037844388" y1="150.0" y2="100.0" /><line stroke="black" stroke-linecap="round" stroke-width="6" x1="150.0" x2="63.39745962155612" y1="150.0" y2="100.0" /></svg>