<?xml version="1.0" encoding="utf-8" ?>
<svg baseProfile="full" height="218.0" version="1.1" width="191.20508075688775" xmlns="http://www.w3.org/2000/svg" xmlns:ev="http://www.w3.org/2001/xml-events" xmlns:xlink="http://www.w3.org/1999/xlink"><defs /><polygon fill="white" points="95.60254037844388,9.0 182.20508075688775,59.0 182.20508075688775,159.0 95.60254037844388,209.0 9.0,159.0 9.0,59.0" stroke="white" stroke-linejoin="round" stroke-width="18" /><polygon fill="#5A9EA3" points="95.60254037844388,109.0 182.20508075688775,59.0 153.33756729740645,42.33333333333334 66.73502691896259,92.33333333333334" stroke="none" /><polygon fill="#5A9EA3" points="95.60254037844388,109.0 66.73502691896259,92.33333333333334 66.73502691896259,125.66666666666667 95.60254037844388,142.33333333333331" stroke="none" /><polygon fill="#5A9EA3" points="95.60254037844388,109.0 182.20508075688775,59.0 182.20508075688775,92.33333333333334 95.60254037844388,142.33333333333331" stroke="none" /><polygon fill="black" points="124.47005383792518,25.666666666666686 37.867513459481295,75.66666666666669 66.73502691896259,92.33333333333334 153.33756729740645,42.33333333333334" stroke="none" /><polygon fill="black" points="37.867513459481295,75.66666666666669 66.73502691896259,92.33333333333334 66.73502691896259,125.66666666666667 95.60254037844388,142.33333333333331 95.60254037844388,175.66666666666669 37.867513459481295,142.33333333333334" stroke="none" /><polygon fill="black" points="95.60254037844388,142.33333333333331 182.20508075688775,92.33333333333334 182.20508075688775,125.66666666666669 95.60254037844388,175.66666666666669" stroke="none" /><line stroke="black" stroke-linecap="round" stroke-width="6" x1="95.60254037844388" x2="182.20508075688775" y1="9.0" y2="59.0" /><line stroke="black" stroke-linecap="round" stroke-width="6" x1="182.20508075688775" x2="182.20508075688775" y1="59.0" y2="159.0" /><line stroke="black" stroke-linecap="round" stroke-width="6" x1="182.20508075688775" x2="95.60254037844388" y1="159.0" y2="209.0" /><line stroke="black" stroke-linecap="round" stroke-width="6" x1="95.60254037844388" x2="9.0" y1="209.0" y2="159.0" /><line stroke="black" stroke-linecap="round" stroke-width="6" x1="9.0" x2="9.0" y1="159.0" y2="59.0" /><line stroke="black" stroke-linecap="round" stroke-width="6" x1="9.0" x2="95.60254037844388" y1="59.0" y2="9.0" /><line stroke="black" stroke-linecap="round" stroke-width="6" x1="95.60254037844388" x2="95.60254037844388" y1="109.0" y2="209.0" /><line stroke="black" stroke-linecap="round" stroke-width="6" x1="95.60254037844388" x2="182.20508075688775" y1="109.0" y2="59.0" /><line stroke="black" stroke-linecap="round" stroke-width="6" x1="95.60254037844388" x2="9.0" y1="109.0" y2="59.0" /></svg>