<?xml version="1.0" encoding="utf-8" ?>
<svg baseProfile="full" height="218.0" version="1.1" width="719.2487238739359" xmlns="http://www.w3.org/2000/svg" xmlns:ev="http://www.w3.org/2001/xml-events" xmlns:xlink="http://www.w3.org/1999/xlink"><defs /><polygon fill="white" points="95.60254037844388,9.0 182.20508075688775,59.0 182.20508075688775,159.0 95.60254037844388,209.0 9.0,159.0 9.0,59.0" stroke="white" stroke-linejoin="round" stroke-width="18" /><polygon fill="#5A9EA3" points="95.60254037844388,109.0 182.20508075688775,59.0 153.33756729740645,42.33333333333334 66.73502691896259,92.33333333333334" stroke="none" /><polygon fill="#5A9EA3" points="95.60254037844388,109.0 66.73502691896259,92.33333333333334 66.73502691896259,125.66666666666667 95.60254037844388,142.33333333333331" stroke="none" /><polygon fill="#5A9EA3" points="95.60254037844388,109.0 182.20508075688775,59.0 182.20508075688775,92.33333333333334 95.60254037844388,142.33333333333331" stroke="none" /><polygon fill="black" points="124.47005383792518,25.666666666666686 37.867513459481295,75.66666666666669 66.73502691896259,92.33333333333334 153.33756729740645,42.33333333333334" stroke="none" /><polygon fill="black" points="37.867513459481295,75.66666666666669 66.73502691896259,92.33333333333334 66.73502691896259,125.66666666666667 95.60254037844388,142.33333333333331 95.60254037844388,175.66666666666669 37.867513459481295,142.33333333333334" stroke="none" /><polygon fill="black" points="95.60254037844388,142.33333333333331 182.20508075688775,92.33333333333334 182.20508075688775,125.66666666666669 95.60254037844388,175.66666666666669" stroke="none" /><line stroke="black" stroke-linecap="round" stroke-width="6" x1="95.60254037844388" x2="182.20508075688775" y1="9.0" y2="59.0" /><line stroke="black" stroke-linecap="round" stroke-width="6" x1="182.20508075688775" x2="182.20508075688775" y1="59.0" y2="159.0" /><line stroke="black" stroke-linecap="round" stroke-width="6" x1="182.20508075688775" x2="95.60254037844388" y1="159.0" y2="209.0" /><line stroke="black" stroke-linecap="round" stroke-width="6" x1="95.60254037844388" x2="9.0" y1="209.0" y2="159.0" /><line stroke="black" stroke-linecap="round" stroke-width="6" x1="9.0" x2="9.0" y1="159.0" y2="59.0" /><line stroke="black" stroke-linecap="round" stroke-width="6" x1="9.0" x2="95.60254037844388" y1="59.0" y2="9.0" /><line stroke="black" stroke-linecap="round" stroke-width="6" x1="95.60254037844388" x2="95.60254037844388" y1="109.0" y2="209.0" /><line stroke="black" stroke-linecap="round" stroke-width="6" x1="95.60254037844388" x2="182.20508075688775" y1="109.0" y2="59.0" /><line stroke="black" stroke-linecap="round" stroke-width="6" x1="95.60254037844388" x2="9.0" y1="109.0" y2="59.0" /><polygon fill="white" points="250.5521657457006,179.7317073170732 225.20508075688775,165.09756097560975 225.20508075688775,194.3658536585366 250.5521657457006,209.0" stroke="none" /><polygon fill="white" points="250.5521657457006,179.7317073170732 335.0424490417434,130.95121951219514 309.6953640529306,116.31707317073172 225.20508075688775,165.09756097560975" stroke="none" /><polygon fill="black" points="250.5521657457006,179.7317073170732 335.0424490417434,130.95121951219514 335.0424490417434,160.21951219512195 250.5521657457006,209.0" stroke="none" /><line stroke="black" stroke-linecap="round" stroke-width="6" x1="309.6953640529306" x2="335.0424490417434" y1="116.31707317073172" y2="130.95121951219514" /><line stroke="black" stroke-linecap="round" stroke-width="6" x1="335.0424490417434" x2="335.0424490417434" y1="130.95121951219514" y2="160.21951219512195" /><line stroke="black" stroke-linecap="round" stroke-width="6" x1="335.0424490417434" x2="250.5521657457006" y1="160.21951219512195" y2="209.0" /><line stroke="black" stroke-linecap="round" stroke-width="6" x1="250.5521657457006" x2="225.20508075688775" y1="209.0" y2="194.3658536585366" /><line stroke="black" stroke-linecap="round" stroke-width="6" x1="225.20508075688775" x2="225.20508075688775" y1="194.3658536585366" y2="165.09756097560975" /><line stroke="black" stroke-linecap="round" stroke-width="6" x1="225.20508075688775" x2="309.6953640529306" y1="165.09756097560975" y2="116.31707317073172" /><line stroke="black" stroke-linecap="round" stroke-width="6" x1="250.5521657457006" x2="250.5521657457006" y1="179.7317073170732" y2="209.0" /><line stroke="black" stroke-linecap="round" stroke-width="6" x1="250.5521657457006" x2="335.0424490417434" y1="179.7317073170732" y2="130.95121951219514" /><line stroke="black" stroke-linecap="round" stroke-width="6" x1="250.5521657457006" x2="225.20508075688775" y1="179.7317073170732" y2="165.09756097560975" /><polygon fill="white" points="250.5521657457006,38.26829268292681 225.20508075688775,23.634146341463406 225.20508075688775,165.09756097560975 250.5521657457006,179.7317073170732" stroke="none" /><polygon fill="white" points="250.5521657457006,38.26829268292681 275.89925073451343,23.634146341463406 250.5521657457006,9.0 225.20508075688775,23.634146341463406" stroke="none" /><polygon fill="black" points="250.5521657457006,179.7317073170732 335.0424490417434,130.95121951219514 335.0424490417434,160.21951219512195 250.5521657457006,209.0" stroke="none" /><polygon fill="black" points="250.5521657457006,38.26829268292681 275.89925073451343,23.634146341463406 275.89925073451343,165.09756097560975 250.5521657457006,179.7317073170732" stroke="none" /><line stroke="black" stroke-linecap="round" stroke-width="6" x1="250.5521657457006" x2="275.89925073451343" y1="9.0" y2="23.634146341463406" /><line stroke="black" stroke-linecap="round" stroke-width="6" x1="275.89925073451343" x2="275.89925073451343" y1="23.634146341463406" y2="165.09756097560975" /><line stroke="black" stroke-linecap="round" stroke-width="6" x1="275.89925073451343" x2="250.5521657457006" y1="165.09756097560975" y2="179.7317073170732" /><line stroke="black" stroke-linecap="round" stroke-width="6" x1="250.5521657457006" x2="225.20508075688775" y1="179.7317073170732" y2="165.09756097560975" /><line stroke="black" stroke-linecap="round" stroke-width="6" x1="225.20508075688775" x2="225.20508075688775" y1="165.09756097560975" y2="23.634146341463406" /><line stroke="black" stroke-linecap="round" stroke-width="6" x1="225.20508075688775" x2="250.5521657457006" y1="23.634146341463406" y2="9.0" /><line stroke="black" stroke-linecap="round" stroke-width="6" x1="250.5521657457006" x2="250.5521657457006" y1="38.26829268292681" y2="179.7317073170732" /><line stroke="black" stroke-linecap="round" stroke-width="6" x1="250.5521657457006" x2="275.89925073451343" y1="38.26829268292681" y2="23.634146341463406" /><line stroke="black" stroke-linecap="round" stroke-width="6" x1="250.5521657457006" x2="225.20508075688775" y1="38.26829268292681" y2="23.634146341463406" /><polygon fill="white" points="250.5521657457006,179.7317073170732 225.20508075688775,165.09756097560975 225.20508075688775,194.3658536585366 250.5521657457006,209.0" stroke="none" /><polygon fill="white" points="250.5521657457006,179.7317073170732 335.0424490417434,130.95121951219514 309.6953640529306,116.31707317073172 225.20508075688775,165.09756097560975" stroke="none" /><polygon fill="black" points="250.5521657457006,179.7317073170732 335.0424490417434,130.95121951219514 335.0424490417434,160.21951219512195 250.5521657457006,209.0" stroke="none" /><polygon fill="white" points="250.5521657457006,38.26829268292681 225.20508075688775,23.634146341463406 225.20508075688775,165.09756097560975 250.5521657457006,179.7317073170732" stroke="none" /><polygon fill="white" points="250.5521657457006,38.26829268292681 275.89925073451343,23.634146341463406 250.5521657457006,9.0 225.20508075688775,23.634146341463406" stroke="none" /><polygon fill="black" points="250.5521657457006,179.7317073170732 335.0424490417434,130.95121951219514 335.0424490417434,160.21951219512195 250.5521657457006,209.0" stroke="none" /><polygon fill="black" points="250.5521657457006,38.26829268292681 275.89925073451343,23.634146341463406 275.89925073451343,165.09756097560975 250.5521657457006,179.7317073170732" stroke="none" /><line stroke="black" stroke-linecap="round" stroke-width="6" x1="275.89925073451343" x2="275.89925073451343" y1="28.134146341463406" y2="165.09756097560975" /><polygon fill="white" points="436.43078899699475,38.26829268292681 411.08370400818194,23.634146341463406 411.08370400818194,160.21951219512198 436.43078899699475,174.85365853658539" stroke="none" /><polygon fill="white" points="436.43078899699475,38.26829268292681 461.77787398580756,23.634146341463406 436.43078899699475,9.0 411.08370400818194,23.634146341463406" stroke="none" /><polygon fill="black" points="436.43078899699475,38.26829268292681 461.77787398580756,23.634146341463406 461.77787398580756,160.21951219512195 436.43078899699475,174.85365853658539" stroke="none" /><line stroke="black" stroke-linecap="round" stroke-width="6" x1="436.43078899699475" x2="461.77787398580756" y1="9.0" y2="23.634146341463406" /><line stroke="black" stroke-linecap="round" stroke-width="6" x1="461.77787398580756" x2="461.77787398580756" y1="23.634146341463406" y2="160.21951219512195" /><line stroke="black" stroke-linecap="round" stroke-width="6" x1="461.77787398580756" x2="436.43078899699475" y1="160.21951219512195" y2="174.85365853658539" /><line stroke="black" stroke-linecap="round" stroke-width="6" x1="436.43078899699475" x2="411.08370400818194" y1="174.85365853658539" y2="160.21951219512198" /><line stroke="black" stroke-linecap="round" stroke-width="6" x1="411.08370400818194" x2="411.08370400818194" y1="160.21951219512198" y2="23.634146341463406" /><line stroke="black" stroke-linecap="round" stroke-width="6" x1="411.08370400818194" x2="436.43078899699475" y1="23.634146341463406" y2="9.0" /><line stroke="black" stroke-linecap="round" stroke-width="6" x1="436.43078899699475" x2="436.43078899699475" y1="38.26829268292681" y2="174.85365853658539" /><line stroke="black" stroke-linecap="round" stroke-width="6" x1="436.43078899699475" x2="461.77787398580756" y1="38.26829268292681" y2="23.634146341463406" /><line stroke="black" stroke-linecap="round" stroke-width="6" x1="436.43078899699475" x2="411.08370400818194" y1="38.26829268292681" y2="23.634146341463406" /><polygon fill="white" points="377.2875906897648,72.41463414634146 351.940505700952,57.78048780487805 351.940505700952,87.04878048780488 377.2875906897648,101.68292682926828" stroke="none" /><polygon fill="white" points="377.2875906897648,72.41463414634146 461.77787398580756,23.634146341463406 436.43078899699475,9.0 351.940505700952,57.78048780487805" stroke="none" /><polygon fill="black" points="436.43078899699475,38.26829268292681 461.77787398580756,23.634146341463406 461.77787398580756,160.21951219512195 436.43078899699475,174.85365853658539" stroke="none" /><polygon fill="black" points="377.2875906897648,72.41463414634146 461.77787398580756,23.634146341463406 461.77787398580756,52.90243902439022 377.2875906897648,101.68292682926828" stroke="none" /><line stroke="black" stroke-linecap="round" stroke-width="6" x1="436.43078899699475" x2="461.77787398580756" y1="9.0" y2="23.634146341463406" /><line stroke="black" stroke-linecap="round" stroke-width="6" x1="461.77787398580756" x2="461.77787398580756" y1="23.634146341463406" y2="52.90243902439022" /><line stroke="black" stroke-linecap="round" stroke-width="6" x1="461.77787398580756" x2="377.2875906897648" y1="52.90243902439022" y2="101.68292682926828" /><line stroke="black" stroke-linecap="round" stroke-width="6" x1="377.2875906897648" x2="351.940505700952" y1="101.68292682926828" y2="87.04878048780488" /><line stroke="black" stroke-linecap="round" stroke-width="6" x1="351.940505700952" x2="351.940505700952" y1="87.04878048780488" y2="57.78048780487805" /><line stroke="black" stroke-linecap="round" stroke-width="6" x1="351.940505700952" x2="436.43078899699475" y1="57.78048780487805" y2="9.0" /><line stroke="black" stroke-linecap="round" stroke-width="6" x1="377.2875906897648" x2="377.2875906897648" y1="72.41463414634146" y2="101.68292682926828" /><line stroke="black" stroke-linecap="round" stroke-width="6" x1="377.2875906897648" x2="461.77787398580756" y1="72.41463414634146" y2="23.634146341463406" /><line stroke="black" stroke-linecap="round" stroke-width="6" x1="377.2875906897648" x2="351.940505700952" y1="72.41463414634146" y2="57.78048780487805" /><polygon fill="white" points="377.2875906897648,126.07317073170731 351.940505700952,111.4390243902439 351.940505700952,140.70731707317074 377.2875906897648,155.34146341463415" stroke="none" /><polygon fill="white" points="377.2875906897648,126.07317073170731 461.77787398580756,77.29268292682926 436.43078899699475,62.65853658536585 351.940505700952,111.4390243902439" stroke="none" /><polygon fill="black" points="436.43078899699475,38.26829268292681 461.77787398580756,23.634146341463406 461.77787398580756,160.21951219512195 436.43078899699475,174.85365853658539" stroke="none" /><polygon fill="black" points="377.2875906897648,72.41463414634146 461.77787398580756,23.634146341463406 461.77787398580756,52.90243902439022 377.2875906897648,101.68292682926828" stroke="none" /><polygon fill="black" points="377.2875906897648,126.07317073170731 461.77787398580756,77.29268292682926 461.77787398580756,106.5609756097561 377.2875906897648,155.34146341463415" stroke="none" /><line stroke="black" stroke-linecap="round" stroke-width="6" x1="436.43078899699475" x2="461.77787398580756" y1="62.65853658536585" y2="77.29268292682926" /><line stroke="black" stroke-linecap="round" stroke-width="6" x1="461.77787398580756" x2="461.77787398580756" y1="77.29268292682926" y2="106.5609756097561" /><line stroke="black" stroke-linecap="round" stroke-width="6" x1="461.77787398580756" x2="377.2875906897648" y1="106.5609756097561" y2="155.34146341463415" /><line stroke="black" stroke-linecap="round" stroke-width="6" x1="377.2875906897648" x2="351.940505700952" y1="155.34146341463415" y2="140.70731707317074" /><line stroke="black" stroke-linecap="round" stroke-width="6" x1="351.940505700952" x2="351.940505700952" y1="140.70731707317074" y2="111.4390243902439" /><line stroke="black" stroke-linecap="round" stroke-width="6" x1="351.940505700952" x2="436.43078899699475" y1="111.4390243902439" y2="62.65853658536585" /><line stroke="black" stroke-linecap="round" stroke-width="6" x1="377.2875906897648" x2="377.2875906897648" y1="126.07317073170731" y2="155.34146341463415" /><line stroke="black" stroke-linecap="round" stroke-width="6" x1="377.2875906897648" x2="461.77787398580756" y1="126.07317073170731" y2="77.29268292682926" /><line stroke="black" stroke-linecap="round" stroke-width="6" x1="377.2875906897648" x2="351.940505700952" y1="126.07317073170731" y2="111.4390243902439" /><polygon fill="white" points="377.2875906897648,72.41463414634146 351.940505700952,57.78048780487805 351.940505700952,194.3658536585366 377.2875906897648,209.0" stroke="none" /><polygon fill="white" points="377.2875906897648,72.41463414634146 402.63467567857765,57.78048780487802 377.2875906897648,43.146341463414615 351.940505700952,57.78048780487805" stroke="none" /><polygon fill="black" points="436.43078899699475,38.26829268292681 461.77787398580756,23.634146341463406 461.77787398580756,160.21951219512195 436.43078899699475,174.85365853658539" stroke="none" /><polygon fill="black" points="377.2875906897648,72.41463414634146 461.77787398580756,23.634146341463406 461.77787398580756,52.90243902439022 377.2875906897648,101.68292682926828" stroke="none" /><polygon fill="black" points="377.2875906897648,126.07317073170731 461.77787398580756,77.29268292682926 461.77787398580756,106.5609756097561 377.2875906897648,155.34146341463415" stroke="none" /><polygon fill="black" points="377.2875906897648,72.41463414634146 402.63467567857765,57.78048780487802 402.63467567857765,194.3658536585366 377.2875906897648,209.0" stroke="none" /><line stroke="black" stroke-linecap="round" stroke-width="6" x1="377.2875906897648" x2="402.63467567857765" y1="43.146341463414615" y2="57.78048780487802" /><line stroke="black" stroke-linecap="round" stroke-width="6" x1="402.63467567857765" x2="402.63467567857765" y1="57.78048780487802" y2="194.3658536585366" /><line stroke="black" stroke-linecap="round" stroke-width="6" x1="402.63467567857765" x2="377.2875906897648" y1="194.3658536585366" y2="209.0" /><line stroke="black" stroke-linecap="round" stroke-width="6" x1="377.2875906897648" x2="351.940505700952" y1="209.0" y2="194.3658536585366" /><line stroke="black" stroke-linecap="round" stroke-width="6" x1="351.940505700952" x2="351.940505700952" y1="194.3658536585366" y2="57.78048780487805" /><line stroke="black" stroke-linecap="round" stroke-width="6" x1="351.940505700952" x2="377.2875906897648" y1="57.78048780487805" y2="43.146341463414615" /><line stroke="black" stroke-linecap="round" stroke-width="6" x1="377.2875906897648" x2="377.2875906897648" y1="72.41463414634146" y2="209.0" /><line stroke="black" stroke-linecap="round" stroke-width="6" x1="377.2875906897648" x2="402.63467567857765" y1="72.41463414634146" y2="57.78048780487802" /><line stroke="black" stroke-linecap="round" stroke-width="6" x1="377.2875906897648" x2="351.940505700952" y1="72.41463414634146" y2="57.78048780487805" /><polygon fill="white" points="436.43078899699475,38.26829268292681 411.08370400818194,23.634146341463406 411.08370400818194,160.21951219512198 436.43078899699475,174.85365853658539" stroke="none" /><polygon fill="white" points="436.43078899699475,38.26829268292681 461.77787398580756,23.634146341463406 436.43078899699475,9.0 411.08370400818194,23.634146341463406" stroke="none" /><polygon fill="black" points="436.43078899699475,38.26829268292681 461.77787398580756,23.634146341463406 461.77787398580756,160.21951219512195 436.43078899699475,174.85365853658539" stroke="none" /><polygon fill="white" points="377.2875906897648,72.41463414634146 351.940505700952,57.78048780487805 351.940505700952,87.04878048780488 377.2875906897648,101.68292682926828" stroke="none" /><polygon fill="white" points="377.2875906897648,72.41463414634146 461.77787398580756,23.634146341463406 436.43078899699475,9.0 351.940505700952,57.78048780487805" stroke="none" /><polygon fill="black" points="436.43078899699475,38.26829268292681 461.77787398580756,23.634146341463406 461.77787398580756,160.21951219512195 436.43078899699475,174.85365853658539" stroke="none" /><polygon fill="black" points="377.2875906897648,72.41463414634146 461.77787398580756,23.634146341463406 461.77787398580756,52.90243902439022 377.2875906897648,101.68292682926828" stroke="none" /><polygon fill="white" points="377.2875906897648,126.07317073170731 351.940505700952,111.4390243902439 351.940505700952,140.70731707317074 377.2875906897648,155.34146341463415" stroke="none" /><polygon fill="white" points="377.2875906897648,126.07317073170731 461.77787398580756,77.29268292682926 436.43078899699475,62.65853658536585 351.940505700952,111.4390243902439" stroke="none" /><polygon fill="black" points="436.43078899699475,38.26829268292681 461.77787398580756,23.634146341463406 461.77787398580756,160.21951219512195 436.43078899699475,174.85365853658539" stroke="none" /><polygon fill="black" points="377.2875906897648,72.41463414634146 461.77787398580756,23.634146341463406 461.77787398580756,52.90243902439022 377.2875906897648,101.68292682926828" stroke="none" /><polygon fill="black" points="377.2875906897648,126.07317073170731 461.77787398580756,77.29268292682926 461.77787398580756,106.5609756097561 377.2875906897648,155.34146341463415" stroke="none" /><polygon fill="white" points="377.2875906897648,72.41463414634146 351.940505700952,57.78048780487805 351.940505700952,194.3658536585366 377.2875906897648,209.0" stroke="none" /><polygon fill="white" points="377.2875906897648,72.41463414634146 402.63467567857765,57.78048780487802 377.2875906897648,43.146341463414615 351.940505700952,57.78048780487805" stroke="none" /><polygon fill="black" points="436.43078899699475,38.26829268292681 461.77787398580756,23.634146341463406 461.77787398580756,160.21951219512195 436.43078899699475,174.85365853658539" stroke="none" /><polygon fill="black" points="377.2875906897648,72.41463414634146 461.77787398580756,23.634146341463406 461.77787398580756,52.90243902439022 377.2875906897648,101.68292682926828" stroke="none" /><polygon fill="black" points="377.2875906897648,126.07317073170731 461.77787398580756,77.29268292682926 461.77787398580756,106.5609756097561 377.2875906897648,155.34146341463415" stroke="none" /><polygon fill="black" points="377.2875906897648,72.41463414634146 402.63467567857765,57.78048780487802 402.63467567857765,194.3658536585366 377.2875906897648,209.0" stroke="none" /><line stroke="black" stroke-linecap="round" stroke-width="6" x1="402.63467567857765" x2="402.63467567857765" y1="62.28048780487802" y2="189.8658536585366" /><polygon fill="white" points="504.023015633829,179.7317073170732 478.67593064501614,165.09756097560978 478.67593064501614,194.3658536585366 504.023015633829,209.0" stroke="none" /><polygon fill="white" points="504.023015633829,179.7317073170732 588.5132989298718,130.9512195121951 563.1662139410589,116.31707317073172 478.67593064501614,165.09756097560978" stroke="none" /><polygon fill="black" points="504.023015633829,179.7317073170732 588.5132989298718,130.9512195121951 588.5132989298718,160.21951219512195 504.023015633829,209.0" stroke="none" /><line stroke="black" stroke-linecap="round" stroke-width="6" x1="563.1662139410589" x2="588.5132989298718" y1="116.31707317073172" y2="130.9512195121951" /><line stroke="black" stroke-linecap="round" stroke-width="6" x1="588.5132989298718" x2="588.5132989298718" y1="130.9512195121951" y2="160.21951219512195" /><line stroke="black" stroke-linecap="round" stroke-width="6" x1="588.5132989298718" x2="504.023015633829" y1="160.21951219512195" y2="209.0" /><line stroke="black" stroke-linecap="round" stroke-width="6" x1="504.023015633829" x2="478.67593064501614" y1="209.0" y2="194.3658536585366" /><line stroke="black" stroke-linecap="round" stroke-width="6" x1="478.67593064501614" x2="478.67593064501614" y1="194.3658536585366" y2="165.09756097560978" /><line stroke="black" stroke-linecap="round" stroke-width="6" x1="478.67593064501614" x2="563.1662139410589" y1="165.09756097560978" y2="116.31707317073172" /><line stroke="black" stroke-linecap="round" stroke-width="6" x1="504.023015633829" x2="504.023015633829" y1="179.7317073170732" y2="209.0" /><line stroke="black" stroke-linecap="round" stroke-width="6" x1="504.023015633829" x2="588.5132989298718" y1="179.7317073170732" y2="130.9512195121951" /><line stroke="black" stroke-linecap="round" stroke-width="6" x1="504.023015633829" x2="478.67593064501614" y1="179.7317073170732" y2="165.09756097560978" /><polygon fill="white" points="563.166213941059,121.1951219512195 537.8191289522462,106.5609756097561 537.8191289522462,130.9512195121951 563.166213941059,145.58536585365852" stroke="none" /><polygon fill="white" points="563.166213941059,121.1951219512195 588.5132989298718,106.5609756097561 563.1662139410589,91.92682926829269 537.8191289522462,106.5609756097561" stroke="none" /><polygon fill="black" points="504.023015633829,179.7317073170732 588.5132989298718,130.9512195121951 588.5132989298718,160.21951219512195 504.023015633829,209.0" stroke="none" /><polygon fill="black" points="563.166213941059,121.1951219512195 588.5132989298718,106.5609756097561 588.5132989298718,130.9512195121951 563.166213941059,145.58536585365852" stroke="none" /><line stroke="black" stroke-linecap="round" stroke-width="6" x1="563.1662139410589" x2="588.5132989298718" y1="91.92682926829269" y2="106.5609756097561" /><line stroke="black" stroke-linecap="round" stroke-width="6" x1="588.5132989298718" x2="588.5132989298718" y1="106.5609756097561" y2="130.9512195121951" /><line stroke="black" stroke-linecap="round" stroke-width="6" x1="588.5132989298718" x2="563.166213941059" y1="130.9512195121951" y2="145.58536585365852" /><line stroke="black" stroke-linecap="round" stroke-width="6" x1="563.166213941059" x2="537.8191289522462" y1="145.58536585365852" y2="130.9512195121951" /><line stroke="black" stroke-linecap="round" stroke-width="6" x1="537.8191289522462" x2="537.8191289522462" y1="130.9512195121951" y2="106.5609756097561" /><line stroke="black" stroke-linecap="round" stroke-width="6" x1="537.8191289522462" x2="563.1662139410589" y1="106.5609756097561" y2="91.92682926829269" /><line stroke="black" stroke-linecap="round" stroke-width="6" x1="563.166213941059" x2="563.166213941059" y1="121.1951219512195" y2="145.58536585365852" /><line stroke="black" stroke-linecap="round" stroke-width="6" x1="563.166213941059" x2="588.5132989298718" y1="121.1951219512195" y2="106.5609756097561" /><line stroke="black" stroke-linecap="round" stroke-width="6" x1="563.166213941059" x2="537.8191289522462" y1="121.1951219512195" y2="106.5609756097561" /><polygon fill="white" points="504.023015633829,126.07317073170732 478.67593064501614,111.43902439024392 478.67593064501614,140.70731707317074 504.023015633829,155.34146341463415" stroke="none" /><polygon fill="white" points="504.023015633829,126.07317073170732 588.5132989298718,77.29268292682929 563.1662139410589,62.65853658536588 478.67593064501614,111.43902439024392" stroke="none" /><polygon fill="black" points="504.023015633829,179.7317073170732 588.5132989298718,130.9512195121951 588.5132989298718,160.21951219512195 504.023015633829,209.0" stroke="none" /><polygon fill="black" points="563.166213941059,121.1951219512195 588.5132989298718,106.5609756097561 588.5132989298718,130.9512195121951 563.166213941059,145.58536585365852" stroke="none" /><polygon fill="black" points="504.023015633829,126.07317073170732 588.5132989298718,77.29268292682929 588.5132989298718,106.5609756097561 504.023015633829,155.34146341463415" stroke="none" /><line stroke="black" stroke-linecap="round" stroke-width="6" x1="563.1662139410589" x2="588.5132989298718" y1="62.65853658536588" y2="77.29268292682929" /><line stroke="black" stroke-linecap="round" stroke-width="6" x1="588.5132989298718" x2="588.5132989298718" y1="77.29268292682929" y2="106.5609756097561" /><line stroke="black" stroke-linecap="round" stroke-width="6" x1="588.5132989298718" x2="504.023015633829" y1="106.5609756097561" y2="155.34146341463415" /><line stroke="black" stroke-linecap="round" stroke-width="6" x1="504.023015633829" x2="478.67593064501614" y1="155.34146341463415" y2="140.70731707317074" /><line stroke="black" stroke-linecap="round" stroke-width="6" x1="478.67593064501614" x2="478.67593064501614" y1="140.70731707317074" y2="111.43902439024392" /><line stroke="black" stroke-linecap="round" stroke-width="6" x1="478.67593064501614" x2="563.1662139410589" y1="111.43902439024392" y2="62.65853658536588" /><line stroke="black" stroke-linecap="round" stroke-width="6" x1="504.023015633829" x2="504.023015633829" y1="126.07317073170732" y2="155.34146341463415" /><line stroke="black" stroke-linecap="round" stroke-width="6" x1="504.023015633829" x2="588.5132989298718" y1="126.07317073170732" y2="77.29268292682929" /><line stroke="black" stroke-linecap="round" stroke-width="6" x1="504.023015633829" x2="478.67593064501614" y1="126.07317073170732" y2="111.43902439024392" /><polygon fill="white" points="504.023015633829,101.68292682926828 478.67593064501614,87.04878048780488 478.67593064501614,111.43902439024392 504.023015633829,126.07317073170732" stroke="none" /><polygon fill="white" points="504.023015633829,101.68292682926828 529.3701006226419,87.04878048780488 504.023015633829,72.41463414634148 478.67593064501614,87.04878048780488" stroke="none" /><polygon fill="black" points="504.023015633829,179.7317073170732 588.5132989298718,130.9512195121951 588.5132989298718,160.21951219512195 504.023015633829,209.0" stroke="none" /><polygon fill="black" points="563.166213941059,121.1951219512195 588.5132989298718,106.5609756097561 588.5132989298718,130.9512195121951 563.166213941059,145.58536585365852" stroke="none" /><polygon fill="black" points="504.023015633829,126.07317073170732 588.5132989298718,77.29268292682929 588.5132989298718,106.5609756097561 504.023015633829,155.34146341463415" stroke="none" /><polygon fill="black" points="504.023015633829,101.68292682926828 529.3701006226419,87.04878048780488 529.3701006226419,111.43902439024392 504.023015633829,126.07317073170732" stroke="none" /><line stroke="black" stroke-linecap="round" stroke-width="6" x1="504.023015633829" x2="529.3701006226419" y1="72.41463414634148" y2="87.04878048780488" /><line stroke="black" stroke-linecap="round" stroke-width="6" x1="529.3701006226419" x2="529.3701006226419" y1="87.04878048780488" y2="111.43902439024392" /><line stroke="black" stroke-linecap="round" stroke-width="6" x1="529.3701006226419" x2="504.023015633829" y1="111.43902439024392" y2="126.07317073170732" /><line stroke="black" stroke-linecap="round" stroke-width="6" x1="504.023015633829" x2="478.67593064501614" y1="126.07317073170732" y2="111.43902439024392" /><line stroke="black" stroke-linecap="round" stroke-width="6" x1="478.67593064501614" x2="478.67593064501614" y1="111.43902439024392" y2="87.04878048780488" /><line stroke="black" stroke-linecap="round" stroke-width="6" x1="478.67593064501614" x2="504.023015633829" y1="87.04878048780488" y2="72.41463414634148" /><line stroke="black" stroke-linecap="round" stroke-width="6" x1="504.023015633829" x2="504.023015633829" y1="101.68292682926828" y2="126.07317073170732" /><line stroke="black" stroke-linecap="round" stroke-width="6" x1="504.023015633829" x2="529.3701006226419" y1="101.68292682926828" y2="87.04878048780488" /><line stroke="black" stroke-linecap="round" stroke-width="6" x1="504.023015633829" x2="478.67593064501614" y1="101.68292682926828" y2="87.04878048780488" /><polygon fill="white" points="504.023015633829,72.41463414634146 478.67593064501614,57.78048780487805 478.67593064501614,87.04878048780488 504.023015633829,101.68292682926828" stroke="none" /><polygon fill="white" points="504.023015633829,72.41463414634146 588.5132989298718,23.634146341463406 563.1662139410589,9.0 478.67593064501614,57.78048780487805" stroke="none" /><polygon fill="black" points="504.023015633829,179.7317073170732 588.5132989298718,130.9512195121951 588.5132989298718,160.21951219512195 504.023015633829,209.0" stroke="none" /><polygon fill="black" points="563.166213941059,121.1951219512195 588.5132989298718,106.5609756097561 588.5132989298718,130.9512195121951 563.166213941059,145.58536585365852" stroke="none" /><polygon fill="black" points="504.023015633829,126.07317073170732 588.5132989298718,77.29268292682929 588.5132989298718,106.5609756097561 504.023015633829,155.34146341463415" stroke="none" /><polygon fill="black" points="504.023015633829,101.68292682926828 529.3701006226419,87.04878048780488 529.3701006226419,111.43902439024392 504.023015633829,126.07317073170732" stroke="none" /><polygon fill="black" points="504.023015633829,72.41463414634146 588.5132989298718,23.634146341463406 588.5132989298718,52.90243902439022 504.023015633829,101.68292682926828" stroke="none" /><line stroke="black" stroke-linecap="round" stroke-width="6" x1="563.1662139410589" x2="588.5132989298718" y1="9.0" y2="23.634146341463406" /><line stroke="black" stroke-linecap="round" stroke-width="6" x1="588.5132989298718" x2="588.5132989298718" y1="23.634146341463406" y2="52.90243902439022" /><line stroke="black" stroke-linecap="round" stroke-width="6" x1="588.5132989298718" x2="504.023015633829" y1="52.90243902439022" y2="101.68292682926828" /><line stroke="black" stroke-linecap="round" stroke-width="6" x1="504.023015633829" x2="478.67593064501614" y1="101.68292682926828" y2="87.04878048780488" /><line stroke="black" stroke-linecap="round" stroke-width="6" x1="478.67593064501614" x2="478.67593064501614" y1="87.04878048780488" y2="57.78048780487805" /><line stroke="black" stroke-linecap="round" stroke-width="6" x1="478.67593064501614" x2="563.1662139410589" y1="57.78048780487805" y2="9.0" /><line stroke="black" stroke-linecap="round" stroke-width="6" x1="504.023015633829" x2="504.023015633829" y1="72.41463414634146" y2="101.68292682926828" /><line stroke="black" stroke-linecap="round" stroke-width="6" x1="504.023015633829" x2="588.5132989298718" y1="72.41463414634146" y2="23.634146341463406" /><line stroke="black" stroke-linecap="round" stroke-width="6" x1="504.023015633829" x2="478.67593064501614" y1="72.41463414634146" y2="57.78048780487805" /><polygon fill="white" points="504.023015633829,179.7317073170732 478.67593064501614,165.09756097560978 478.67593064501614,194.3658536585366 504.023015633829,209.0" stroke="none" /><polygon fill="white" points="504.023015633829,179.7317073170732 588.5132989298718,130.9512195121951 563.1662139410589,116.31707317073172 478.67593064501614,165.09756097560978" stroke="none" /><polygon fill="black" points="504.023015633829,179.7317073170732 588.5132989298718,130.9512195121951 588.5132989298718,160.21951219512195 504.023015633829,209.0" stroke="none" /><polygon fill="white" points="563.166213941059,121.1951219512195 537.8191289522462,106.5609756097561 537.8191289522462,130.9512195121951 563.166213941059,145.58536585365852" stroke="none" /><polygon fill="white" points="563.166213941059,121.1951219512195 588.5132989298718,106.5609756097561 563.1662139410589,91.92682926829269 537.8191289522462,106.5609756097561" stroke="none" /><polygon fill="black" points="504.023015633829,179.7317073170732 588.5132989298718,130.9512195121951 588.5132989298718,160.21951219512195 504.023015633829,209.0" stroke="none" /><polygon fill="black" points="563.166213941059,121.1951219512195 588.5132989298718,106.5609756097561 588.5132989298718,130.9512195121951 563.166213941059,145.58536585365852" stroke="none" /><polygon fill="white" points="504.023015633829,126.07317073170732 478.67593064501614,111.43902439024392 478.67593064501614,140.70731707317074 504.023015633829,155.34146341463415" stroke="none" /><polygon fill="white" points="504.023015633829,126.07317073170732 588.5132989298718,77.29268292682929 563.1662139410589,62.65853658536588 478.67593064501614,111.43902439024392" stroke="none" /><polygon fill="black" points="504.023015633829,179.7317073170732 588.5132989298718,130.9512195121951 588.5132989298718,160.21951219512195 504.023015633829,209.0" stroke="none" /><polygon fill="black" points="563.166213941059,121.1951219512195 588.5132989298718,106.5609756097561 588.5132989298718,130.9512195121951 563.166213941059,145.58536585365852" stroke="none" /><polygon fill="black" points="504.023015633829,126.07317073170732 588.5132989298718,77.29268292682929 588.5132989298718,106.5609756097561 504.023015633829,155.34146341463415" stroke="none" /><polygon fill="white" points="504.023015633829,101.68292682926828 478.67593064501614,87.04878048780488 478.67593064501614,111.43902439024392 504.023015633829,126.07317073170732" stroke="none" /><polygon fill="white" points="504.023015633829,101.68292682926828 529.3701006226419,87.04878048780488 504.023015633829,72.41463414634148 478.67593064501614,87.04878048780488" stroke="none" /><polygon fill="black" points="504.023015633829,179.7317073170732 588.5132989298718,130.9512195121951 588.5132989298718,160.21951219512195 504.023015633829,209.0" stroke="none" /><polygon fill="black" points="563.166213941059,121.1951219512195 588.5132989298718,106.5609756097561 588.5132989298718,130.9512195121951 563.166213941059,145.58536585365852" stroke="none" /><polygon fill="black" points="504.023015633829,126.07317073170732 588.5132989298718,77.29268292682929 588.5132989298718,106.5609756097561 504.023015633829,155.34146341463415" stroke="none" /><polygon fill="black" points="504.023015633829,101.68292682926828 529.3701006226419,87.04878048780488 529.3701006226419,111.43902439024392 504.023015633829,126.07317073170732" stroke="none" /><polygon fill="white" points="504.023015633829,72.41463414634146 478.67593064501614,57.78048780487805 478.67593064501614,87.04878048780488 504.023015633829,101.68292682926828" stroke="none" /><polygon fill="white" points="504.023015633829,72.41463414634146 588.5132989298718,23.634146341463406 563.1662139410589,9.0 478.67593064501614,57.78048780487805" stroke="none" /><polygon fill="black" points="504.023015633829,179.7317073170732 588.5132989298718,130.9512195121951 588.5132989298718,160.21951219512195 504.023015633829,209.0" stroke="none" /><polygon fill="black" points="563.166213941059,121.1951219512195 588.5132989298718,106.5609756097561 588.5132989298718,130.9512195121951 563.166213941059,145.58536585365852" stroke="none" /><polygon fill="black" points="504.023015633829,126.07317073170732 588.5132989298718,77.29268292682929 588.5132989298718,106.5609756097561 504.023015633829,155.34146341463415" stroke="none" /><polygon fill="black" points="504.023015633829,101.68292682926828 529.3701006226419,87.04878048780488 529.3701006226419,111.43902439024392 504.023015633829,126.07317073170732" stroke="none" /><polygon fill="black" points="504.023015633829,72.41463414634146 588.5132989298718,23.634146341463406 588.5132989298718,52.90243902439022 504.023015633829,101.68292682926828" stroke="none" /><line stroke="black" stroke-linecap="round" stroke-width="6" x1="584.6161846128418" x2="507.92012995085895" y1="55.15243902439022" y2="99.43292682926828" /><polygon fill="white" points="660.3300397315081,84.60975609756098 634.9829547426953,69.97560975609758 634.9829547426953,194.3658536585366 660.3300397315081,209.0" stroke="none" /><polygon fill="white" points="660.3300397315081,84.60975609756098 685.677124720321,69.97560975609758 660.3300397315081,55.34146341463412 634.9829547426953,69.97560975609758" stroke="none" /><polygon fill="black" points="660.3300397315081,84.60975609756098 685.677124720321,69.97560975609758 685.677124720321,194.3658536585366 660.3300397315081,209.0" stroke="none" /><line stroke="black" stroke-linecap="round" stroke-width="6" x1="660.3300397315081" x2="685.677124720321" y1="55.34146341463412" y2="69.97560975609758" /><line stroke="black" stroke-linecap="round" stroke-width="6" x1="685.677124720321" x2="685.677124720321" y1="69.97560975609758" y2="194.3658536585366" /><line stroke="black" stroke-linecap="round" stroke-width="6" x1="685.677124720321" x2="660.3300397315081" y1="194.3658536585366" y2="209.0" /><line stroke="black" stroke-linecap="round" stroke-width="6" x1="660.3300397315081" x2="634.9829547426953" y1="209.0" y2="194.3658536585366" /><line stroke="black" stroke-linecap="round" stroke-width="6" x1="634.9829547426953" x2="634.9829547426953" y1="194.3658536585366" y2="69.97560975609758" /><line stroke="black" stroke-linecap="round" stroke-width="6" x1="634.9829547426953" x2="660.3300397315081" y1="69.97560975609758" y2="55.34146341463412" /><line stroke="black" stroke-linecap="round" stroke-width="6" x1="660.3300397315081" x2="660.3300397315081" y1="84.60975609756098" y2="209.0" /><line stroke="black" stroke-linecap="round" stroke-width="6" x1="660.3300397315081" x2="685.677124720321" y1="84.60975609756098" y2="69.97560975609758" /><line stroke="black" stroke-linecap="round" stroke-width="6" x1="660.3300397315081" x2="634.9829547426953" y1="84.60975609756098" y2="69.97560975609758" /><polygon fill="white" points="630.7584405778932,72.41463414634146 605.4113555890804,57.78048780487805 605.4113555890804,87.04878048780488 630.7584405778932,101.68292682926828" stroke="none" /><polygon fill="white" points="630.7584405778932,72.41463414634146 715.2487238739359,23.634146341463463 689.901638885123,9.000000000000057 605.4113555890804,57.78048780487805" stroke="none" /><polygon fill="black" points="660.3300397315081,84.60975609756098 685.677124720321,69.97560975609758 685.677124720321,194.3658536585366 660.3300397315081,209.0" stroke="none" /><polygon fill="black" points="630.7584405778932,72.41463414634146 715.2487238739359,23.634146341463463 715.2487238739359,52.902439024390276 630.7584405778932,101.68292682926828" stroke="none" /><line stroke="black" stroke-linecap="round" stroke-width="6" x1="689.901638885123" x2="715.2487238739359" y1="9.000000000000057" y2="23.634146341463463" /><line stroke="black" stroke-linecap="round" stroke-width="6" x1="715.2487238739359" x2="715.2487238739359" y1="23.634146341463463" y2="52.902439024390276" /><line stroke="black" stroke-linecap="round" stroke-width="6" x1="715.2487238739359" x2="630.7584405778932" y1="52.902439024390276" y2="101.68292682926828" /><line stroke="black" stroke-linecap="round" stroke-width="6" x1="630.7584405778932" x2="605.4113555890804" y1="101.68292682926828" y2="87.04878048780488" /><line stroke="black" stroke-linecap="round" stroke-width="6" x1="605.4113555890804" x2="605.4113555890804" y1="87.04878048780488" y2="57.78048780487805" /><line stroke="black" stroke-linecap="round" stroke-width="6" x1="605.4113555890804" x2="689.901638885123" y1="57.78048780487805" y2="9.000000000000057" /><line stroke="black" stroke-linecap="round" stroke-width="6" x1="630.7584405778932" x2="630.7584405778932" y1="72.41463414634146" y2="101.68292682926828" /><line stroke="black" stroke-linecap="round" stroke-width="6" x1="630.7584405778932" x2="715.2487238739359" y1="72.41463414634146" y2="23.634146341463463" /><line stroke="black" stroke-linecap="round" stroke-width="6" x1="630.7584405778932" x2="605.4113555890804" y1="72.41463414634146" y2="57.78048780487805" /><polygon fill="white" points="660.3300397315081,84.60975609756098 634.9829547426953,69.97560975609758 634.9829547426953,194.3658536585366 660.3300397315081,209.0" stroke="none" /><polygon fill="white" points="660.3300397315081,84.60975609756098 685.677124720321,69.97560975609758 660.3300397315081,55.34146341463412 634.9829547426953,69.97560975609758" stroke="none" /><polygon fill="black" points="660.3300397315081,84.60975609756098 685.677124720321,69.97560975609758 685.677124720321,194.3658536585366 660.3300397315081,209.0" stroke="none" /><polygon fill="white" points="630.7584405778932,72.41463414634146 605.4113555890804,57.78048780487805 605.4113555890804,87.04878048780488 630.7584405778932,101.68292682926828" stroke="none" /><polygon fill="white" points="630.7584405778932,72.41463414634146 715.2487238739359,23.634146341463463 689.901638885123,9.000000000000057 605.4113555890804,57.78048780487805" stroke="none" /><polygon fill="black" points="660.3300397315081,84.60975609756098 685.677124720321,69.97560975609758 685.677124720321,194.3658536585366 660.3300397315081,209.0" stroke="none" /><polygon fill="black" points="630.7584405778932,72.41463414634146 715.2487238739359,23.634146341463463 715.2487238739359,52.902439024390276 630.7584405778932,101.68292682926828" stroke="none" /><line stroke="black" stroke-linecap="round" stroke-width="6" x1="715.2487238739359" x2="715.2487238739359" y1="23.634146341463463" y2="52.902439024390276" /><line stroke="black" stroke-linecap="round" stroke-width="6" x1="715.2487238739359" x2="630.7584405778932" y1="52.902439024390276" y2="101.68292682926828" /><line stroke="black" stroke-linecap="round" stroke-width="6" x1="630.7584405778932" x2="630.7584405778932" y1="72.41463414634146" y2="101.68292682926828" /><line stroke="black" stroke-linecap="round" stroke-width="6" x1="630.7584405778932" x2="715.2487238739359" y1="72.41463414634146" y2="23.634146341463463" /></svg>