<?xml version="1.0" encoding="utf-8" ?>
<svg baseProfile="full" height="208.0" version="1.1" width="707.2487238739359" xmlns="http://www.w3.org/2000/svg" xmlns:ev="http://www.w3.org/2001/xml-events" xmlns:xlink="http://www.w3.org/1999/xlink"><defs /><polygon fill="white" points="89.60254037844388,4.0 176.20508075688775,54.0 176.20508075688775,154.0 89.60254037844388,204.0 3.0,154.0 3.0,54.0" stroke="none" /><polygon fill="#5A9EA3" points="89.60254037844388,104.0 176.20508075688775,54.0 147.33756729740645,37.33333333333334 60.73502691896259,87.33333333333334" stroke="none" /><polygon fill="#5A9EA3" points="89.60254037844388,104.0 60.73502691896259,87.33333333333334 60.73502691896259,120.66666666666667 89.60254037844388,137.33333333333331" stroke="none" /><polygon fill="#5A9EA3" points="89.60254037844388,104.0 176.20508075688775,54.0 176.20508075688775,87.33333333333334 89.60254037844388,137.33333333333331" stroke="none" /><polygon fill="black" points="118.47005383792518,20.666666666666686 31.867513459481295,70.66666666666669 60.73502691896259,87.33333333333334 147.33756729740645,37.33333333333334" stroke="none" /><polygon fill="black" points="31.867513459481295,70.66666666666669 60.73502691896259,87.33333333333334 60.73502691896259,120.66666666666667 89.60254037844388,137.33333333333331 89.60254037844388,170.66666666666669 31.867513459481295,137.33333333333334" stroke="none" /><polygon fill="black" points="89.60254037844388,137.33333333333331 176.20508075688775,87.33333333333334 176.20508075688775,120.66666666666669 89.60254037844388,170.66666666666669" stroke="none" /><line stroke="black" stroke-linecap="round" stroke-width="6" x1="89.60254037844388" x2="176.20508075688775" y1="4.0" y2="54.0" /><line stroke="black" stroke-linecap="round" stroke-width="6" x1="176.20508075688775" x2="176.20508075688775" y1="54.0" y2="154.0" /><line stroke="black" stroke-linecap="round" stroke-width="6" x1="176.20508075688775" x2="89.60254037844388" y1="154.0" y2="204.0" /><line stroke="black" stroke-linecap="round" stroke-width="6" x1="89.60254037844388" x2="3.0" y1="204.0" y2="154.0" /><line stroke="black" stroke-linecap="round" stroke-width="6" x1="3.0" x2="3.0" y1="154.0" y2="54.0" /><line stroke="black" stroke-linecap="round" stroke-width="6" x1="3.0" x2="89.60254037844388" y1="54.0" y2="4.0" /><line stroke="black" stroke-linecap="round" stroke-width="6" x1="89.60254037844388" x2="89.60254037844388" y1="104.0" y2="204.0" /><line stroke="black" stroke-linecap="round" stroke-width="6" x1="89.60254037844388" x2="176.20508075688775" y1="104.0" y2="54.0" /><line stroke="black" stroke-linecap="round" stroke-width="6" x1="89.60254037844388" x2="3.0" y1="104.0" y2="54.0" /><polygon fill="white" points="238.5521657457006,174.7317073170732 213.20508075688775,160.09756097560975 213.20508075688775,189.3658536585366 238.5521657457006,204.0" stroke="none" /><polygon fill="white" points="238.5521657457006,174.7317073170732 323.0424490417434,125.95121951219514 297.6953640529306,111.31707317073172 213.20508075688775,160.09756097560975" stroke="none" /><polygon fill="black" points="238.5521657457006,174.7317073170732 323.0424490417434,125.95121951219514 323.0424490417434,155.21951219512195 238.5521657457006,204.0" stroke="none" /><line stroke="black" stroke-linecap="round" stroke-width="6" x1="297.6953640529306" x2="323.0424490417434" y1="111.31707317073172" y2="125.95121951219514" /><line stroke="black" stroke-linecap="round" stroke-width="6" x1="323.0424490417434" x2="323.0424490417434" y1="125.95121951219514" y2="155.21951219512195" /><line stroke="black" stroke-linecap="round" stroke-width="6" x1="323.0424490417434" x2="238.5521657457006" y1="155.21951219512195" y2="204.0" /><line stroke="black" stroke-linecap="round" stroke-width="6" x1="238.5521657457006" x2="213.20508075688775" y1="204.0" y2="189.3658536585366" /><line stroke="black" stroke-linecap="round" stroke-width="6" x1="213.20508075688775" x2="213.20508075688775" y1="189.3658536585366" y2="160.09756097560975" /><line stroke="black" stroke-linecap="round" stroke-width="6" x1="213.20508075688775" x2="297.6953640529306" y1="160.09756097560975" y2="111.31707317073172" /><line stroke="black" stroke-linecap="round" stroke-width="6" x1="238.5521657457006" x2="238.5521657457006" y1="174.7317073170732" y2="204.0" /><line stroke="black" stroke-linecap="round" stroke-width="6" x1="238.5521657457006" x2="323.0424490417434" y1="174.7317073170732" y2="125.95121951219514" /><line stroke="black" stroke-linecap="round" stroke-width="6" x1="238.5521657457006" x2="213.20508075688775" y1="174.7317073170732" y2="160.09756097560975" /><polygon fill="white" points="238.5521657457006,33.26829268292681 213.20508075688775,18.634146341463406 213.20508075688775,160.09756097560975 238.5521657457006,174.7317073170732" stroke="none" /><polygon fill="white" points="238.5521657457006,33.26829268292681 263.89925073451343,18.634146341463406 238.5521657457006,4.0 213.20508075688775,18.634146341463406" stroke="none" /><polygon fill="black" points="238.5521657457006,174.7317073170732 323.0424490417434,125.95121951219514 323.0424490417434,155.21951219512195 238.5521657457006,204.0" stroke="none" /><polygon fill="black" points="238.5521657457006,33.26829268292681 263.89925073451343,18.634146341463406 263.89925073451343,160.09756097560975 238.5521657457006,174.7317073170732" stroke="none" /><line stroke="black" stroke-linecap="round" stroke-width="6" x1="238.5521657457006" x2="263.89925073451343" y1="4.0" y2="18.634146341463406" /><line stroke="black" stroke-linecap="round" stroke-width="6" x1="263.89925073451343" x2="263.89925073451343" y1="18.634146341463406" y2="160.09756097560975" /><line stroke="black" stroke-linecap="round" stroke-width="6" x1="263.89925073451343" x2="238.5521657457006" y1="160.09756097560975" y2="174.7317073170732" /><line stroke="black" stroke-linecap="round" stroke-width="6" x1="238.5521657457006" x2="213.20508075688775" y1="174.7317073170732" y2="160.09756097560975" /><line stroke="black" stroke-linecap="round" stroke-width="6" x1="213.20508075688775" x2="213.20508075688775" y1="160.09756097560975" y2="18.634146341463406" /><line stroke="black" stroke-linecap="round" stroke-width="6" x1="213.20508075688775" x2="238.5521657457006" y1="18.634146341463406" y2="4.0" /><line stroke="black" stroke-linecap="round" stroke-width="6" x1="238.5521657457006" x2="238.5521657457006" y1="33.26829268292681" y2="174.7317073170732" /><line stroke="black" stroke-linecap="round" stroke-width="6" x1="238.5521657457006" x2="263.89925073451343" y1="33.26829268292681" y2="18.634146341463406" /><line stroke="black" stroke-linecap="round" stroke-width="6" x1="238.5521657457006" x2="213.20508075688775" y1="33.26829268292681" y2="18.634146341463406" /><polygon fill="white" points="238.5521657457006,174.7317073170732 213.20508075688775,160.09756097560975 213.20508075688775,189.3658536585366 238.5521657457006,204.0" stroke="none" /><polygon fill="white" points="238.5521657457006,174.7317073170732 323.0424490417434,125.95121951219514 297.6953640529306,111.31707317073172 213.20508075688775,160.09756097560975" stroke="none" /><polygon fill="black" points="238.5521657457006,174.7317073170732 323.0424490417434,125.95121951219514 323.0424490417434,155.21951219512195 238.5521657457006,204.0" stroke="none" /><polygon fill="white" points="238.5521657457006,33.26829268292681 213.20508075688775,18.634146341463406 213.20508075688775,160.09756097560975 238.5521657457006,174.7317073170732" stroke="none" /><polygon fill="white" points="238.5521657457006,33.26829268292681 263.89925073451343,18.634146341463406 238.5521657457006,4.0 213.20508075688775,18.634146341463406" stroke="none" /><polygon fill="black" points="238.5521657457006,174.7317073170732 323.0424490417434,125.95121951219514 323.0424490417434,155.21951219512195 238.5521657457006,204.0" stroke="none" /><polygon fill="black" points="238.5521657457006,33.26829268292681 263.89925073451343,18.634146341463406 263.89925073451343,160.09756097560975 238.5521657457006,174.7317073170732" stroke="none" /><line stroke="black" stroke-linecap="round" stroke-width="6" x1="263.89925073451343" x2="263.89925073451343" y1="23.134146341463406" y2="160.09756097560975" /><polygon fill="white" points="424.43078899699475,33.26829268292681 399.08370400818194,18.634146341463406 399.08370400818194,155.21951219512198 424.43078899699475,169.85365853658539" stroke="none" /><polygon fill="white" points="424.43078899699475,33.26829268292681 449.77787398580756,18.634146341463406 424.43078899699475,4.0 399.08370400818194,18.634146341463406" stroke="none" /><polygon fill="black" points="424.43078899699475,33.26829268292681 449.77787398580756,18.634146341463406 449.77787398580756,155.21951219512195 424.43078899699475,169.85365853658539" stroke="none" /><line stroke="black" stroke-linecap="round" stroke-width="6" x1="424.43078899699475" x2="449.77787398580756" y1="4.0" y2="18.634146341463406" /><line stroke="black" stroke-linecap="round" stroke-width="6" x1="449.77787398580756" x2="449.77787398580756" y1="18.634146341463406" y2="155.21951219512195" /><line stroke="black" stroke-linecap="round" stroke-width="6" x1="449.77787398580756" x2="424.43078899699475" y1="155.21951219512195" y2="169.85365853658539" /><line stroke="black" stroke-linecap="round" stroke-width="6" x1="424.43078899699475" x2="399.08370400818194" y1="169.85365853658539" y2="155.21951219512198" /><line stroke="black" stroke-linecap="round" stroke-width="6" x1="399.08370400818194" x2="399.08370400818194" y1="155.21951219512198" y2="18.634146341463406" /><line stroke="black" stroke-linecap="round" stroke-width="6" x1="399.08370400818194" x2="424.43078899699475" y1="18.634146341463406" y2="4.0" /><line stroke="black" stroke-linecap="round" stroke-width="6" x1="424.43078899699475" x2="424.43078899699475" y1="33.26829268292681" y2="169.85365853658539" /><line stroke="black" stroke-linecap="round" stroke-width="6" x1="424.43078899699475" x2="449.77787398580756" y1="33.26829268292681" y2="18.634146341463406" /><line stroke="black" stroke-linecap="round" stroke-width="6" x1="424.43078899699475" x2="399.08370400818194" y1="33.26829268292681" y2="18.634146341463406" /><polygon fill="white" points="365.2875906897648,67.41463414634146 339.940505700952,52.78048780487805 339.940505700952,82.04878048780488 365.2875906897648,96.68292682926828" stroke="none" /><polygon fill="white" points="365.2875906897648,67.41463414634146 449.77787398580756,18.634146341463406 424.43078899699475,4.0 339.940505700952,52.78048780487805" stroke="none" /><polygon fill="black" points="424.43078899699475,33.26829268292681 449.77787398580756,18.634146341463406 449.77787398580756,155.21951219512195 424.43078899699475,169.85365853658539" stroke="none" /><polygon fill="black" points="365.2875906897648,67.41463414634146 449.77787398580756,18.634146341463406 449.77787398580756,47.90243902439022 365.2875906897648,96.68292682926828" stroke="none" /><line stroke="black" stroke-linecap="round" stroke-width="6" x1="424.43078899699475" x2="449.77787398580756" y1="4.0" y2="18.634146341463406" /><line stroke="black" stroke-linecap="round" stroke-width="6" x1="449.77787398580756" x2="449.77787398580756" y1="18.634146341463406" y2="47.90243902439022" /><line stroke="black" stroke-linecap="round" stroke-width="6" x1="449.77787398580756" x2="365.2875906897648" y1="47.90243902439022" y2="96.68292682926828" /><line stroke="black" stroke-linecap="round" stroke-width="6" x1="365.2875906897648" x2="339.940505700952" y1="96.68292682926828" y2="82.04878048780488" /><line stroke="black" stroke-linecap="round" stroke-width="6" x1="339.940505700952" x2="339.940505700952" y1="82.04878048780488" y2="52.78048780487805" /><line stroke="black" stroke-linecap="round" stroke-width="6" x1="339.940505700952" x2="424.43078899699475" y1="52.78048780487805" y2="4.0" /><line stroke="black" stroke-linecap="round" stroke-width="6" x1="365.2875906897648" x2="365.2875906897648" y1="67.41463414634146" y2="96.68292682926828" /><line stroke="black" stroke-linecap="round" stroke-width="6" x1="365.2875906897648" x2="449.77787398580756" y1="67.41463414634146" y2="18.634146341463406" /><line stroke="black" stroke-linecap="round" stroke-width="6" x1="365.2875906897648" x2="339.940505700952" y1="67.41463414634146" y2="52.78048780487805" /><polygon fill="white" points="365.2875906897648,121.07317073170731 339.940505700952,106.4390243902439 339.940505700952,135.70731707317074 365.2875906897648,150.34146341463415" stroke="none" /><polygon fill="white" points="365.2875906897648,121.07317073170731 449.77787398580756,72.29268292682926 424.43078899699475,57.65853658536585 339.940505700952,106.4390243902439" stroke="none" /><polygon fill="black" points="424.43078899699475,33.26829268292681 449.77787398580756,18.634146341463406 449.77787398580756,155.21951219512195 424.43078899699475,169.85365853658539" stroke="none" /><polygon fill="black" points="365.2875906897648,67.41463414634146 449.77787398580756,18.634146341463406 449.77787398580756,47.90243902439022 365.2875906897648,96.68292682926828" stroke="none" /><polygon fill="black" points="365.2875906897648,121.07317073170731 449.77787398580756,72.29268292682926 449.77787398580756,101.5609756097561 365.2875906897648,150.34146341463415" stroke="none" /><line stroke="black" stroke-linecap="round" stroke-width="6" x1="424.43078899699475" x2="449.77787398580756" y1="57.65853658536585" y2="72.29268292682926" /><line stroke="black" stroke-linecap="round" stroke-width="6" x1="449.77787398580756" x2="449.77787398580756" y1="72.29268292682926" y2="101.5609756097561" /><line stroke="black" stroke-linecap="round" stroke-width="6" x1="449.77787398580756" x2="365.2875906897648" y1="101.5609756097561" y2="150.34146341463415" /><line stroke="black" stroke-linecap="round" stroke-width="6" x1="365.2875906897648" x2="339.940505700952" y1="150.34146341463415" y2="135.70731707317074" /><line stroke="black" stroke-linecap="round" stroke-width="6" x1="339.940505700952" x2="339.940505700952" y1="135.70731707317074" y2="106.4390243902439" /><line stroke="black" stroke-linecap="round" stroke-width="6" x1="339.940505700952" x2="424.43078899699475" y1="106.4390243902439" y2="57.65853658536585" /><line stroke="black" stroke-linecap="round" stroke-width="6" x1="365.2875906897648" x2="365.2875906897648" y1="121.07317073170731" y2="150.34146341463415" /><line stroke="black" stroke-linecap="round" stroke-width="6" x1="365.2875906897648" x2="449.77787398580756" y1="121.07317073170731" y2="72.29268292682926" /><line stroke="black" stroke-linecap="round" stroke-width="6" x1="365.2875906897648" x2="339.940505700952" y1="121.07317073170731" y2="106.4390243902439" /><polygon fill="white" points="365.2875906897648,67.41463414634146 339.940505700952,52.78048780487805 339.940505700952,189.3658536585366 365.2875906897648,204.0" stroke="none" /><polygon fill="white" points="365.2875906897648,67.41463414634146 390.63467567857765,52.78048780487802 365.2875906897648,38.146341463414615 339.940505700952,52.78048780487805" stroke="none" /><polygon fill="black" points="424.43078899699475,33.26829268292681 449.77787398580756,18.634146341463406 449.77787398580756,155.21951219512195 424.43078899699475,169.85365853658539" stroke="none" /><polygon fill="black" points="365.2875906897648,67.41463414634146 449.77787398580756,18.634146341463406 449.77787398580756,47.90243902439022 365.2875906897648,96.68292682926828" stroke="none" /><polygon fill="black" points="365.2875906897648,121.07317073170731 449.77787398580756,72.29268292682926 449.77787398580756,101.5609756097561 365.2875906897648,150.34146341463415" stroke="none" /><polygon fill="black" points="365.2875906897648,67.41463414634146 390.63467567857765,52.78048780487802 390.63467567857765,189.3658536585366 365.2875906897648,204.0" stroke="none" /><line stroke="black" stroke-linecap="round" stroke-width="6" x1="365.2875906897648" x2="390.63467567857765" y1="38.146341463414615" y2="52.78048780487802" /><line stroke="black" stroke-linecap="round" stroke-width="6" x1="390.63467567857765" x2="390.63467567857765" y1="52.78048780487802" y2="189.3658536585366" /><line stroke="black" stroke-linecap="round" stroke-width="6" x1="390.63467567857765" x2="365.2875906897648" y1="189.3658536585366" y2="204.0" /><line stroke="black" stroke-linecap="round" stroke-width="6" x1="365.2875906897648" x2="339.940505700952" y1="204.0" y2="189.3658536585366" /><line stroke="black" stroke-linecap="round" stroke-width="6" x1="339.940505700952" x2="339.940505700952" y1="189.3658536585366" y2="52.78048780487805" /><line stroke="black" stroke-linecap="round" stroke-width="6" x1="339.940505700952" x2="365.2875906897648" y1="52.78048780487805" y2="38.146341463414615" /><line stroke="black" stroke-linecap="round" stroke-width="6" x1="365.2875906897648" x2="365.2875906897648" y1="67.41463414634146" y2="204.0" /><line stroke="black" stroke-linecap="round" stroke-width="6" x1="365.2875906897648" x2="390.63467567857765" y1="67.41463414634146" y2="52.78048780487802" /><line stroke="black" stroke-linecap="round" stroke-width="6" x1="365.2875906897648" x2="339.940505700952" y1="67.41463414634146" y2="52.78048780487805" /><polygon fill="white" points="424.43078899699475,33.26829268292681 399.08370400818194,18.634146341463406 399.08370400818194,155.21951219512198 424.43078899699475,169.85365853658539" stroke="none" /><polygon fill="white" points="424.43078899699475,33.26829268292681 449.77787398580756,18.634146341463406 424.43078899699475,4.0 399.08370400818194,18.634146341463406" stroke="none" /><polygon fill="black" points="424.43078899699475,33.26829268292681 449.77787398580756,18.634146341463406 449.77787398580756,155.21951219512195 424.43078899699475,169.85365853658539" stroke="none" /><polygon fill="white" points="365.2875906897648,67.41463414634146 339.940505700952,52.78048780487805 339.940505700952,82.04878048780488 365.2875906897648,96.68292682926828" stroke="none" /><polygon fill="white" points="365.2875906897648,67.41463414634146 449.77787398580756,18.634146341463406 424.43078899699475,4.0 339.940505700952,52.78048780487805" stroke="none" /><polygon fill="black" points="424.43078899699475,33.26829268292681 449.77787398580756,18.634146341463406 449.77787398580756,155.21951219512195 424.43078899699475,169.85365853658539" stroke="none" /><polygon fill="black" points="365.2875906897648,67.41463414634146 449.77787398580756,18.634146341463406 449.77787398580756,47.90243902439022 365.2875906897648,96.68292682926828" stroke="none" /><polygon fill="white" points="365.2875906897648,121.07317073170731 339.940505700952,106.4390243902439 339.940505700952,135.70731707317074 365.2875906897648,150.34146341463415" stroke="none" /><polygon fill="white" points="365.2875906897648,121.07317073170731 449.77787398580756,72.29268292682926 424.43078899699475,57.65853658536585 339.940505700952,106.4390243902439" stroke="none" /><polygon fill="black" points="424.43078899699475,33.26829268292681 449.77787398580756,18.634146341463406 449.77787398580756,155.21951219512195 424.43078899699475,169.85365853658539" stroke="none" /><polygon fill="black" points="365.2875906897648,67.41463414634146 449.77787398580756,18.634146341463406 449.77787398580756,47.90243902439022 365.2875906897648,96.68292682926828" stroke="none" /><polygon fill="black" points="365.2875906897648,121.07317073170731 449.77787398580756,72.29268292682926 449.77787398580756,101.5609756097561 365.2875906897648,150.34146341463415" stroke="none" /><polygon fill="white" points="365.2875906897648,67.41463414634146 339.940505700952,52.78048780487805 339.940505700952,189.3658536585366 365.2875906897648,204.0" stroke="none" /><polygon fill="white" points="365.2875906897648,67.41463414634146 390.63467567857765,52.78048780487802 365.2875906897648,38.146341463414615 339.940505700952,52.78048780487805" stroke="none" /><polygon fill="black" points="424.43078899699475,33.26829268292681 449.77787398580756,18.634146341463406 449.77787398580756,155.21951219512195 424.43078899699475,169.85365853658539" stroke="none" /><polygon fill="black" points="365.2875906897648,67.41463414634146 449.77787398580756,18.634146341463406 449.77787398580756,47.90243902439022 365.2875906897648,96.68292682926828" stroke="none" /><polygon fill="black" points="365.2875906897648,121.07317073170731 449.77787398580756,72.29268292682926 449.77787398580756,101.5609756097561 365.2875906897648,150.34146341463415" stroke="none" /><polygon fill="black" points="365.2875906897648,67.41463414634146 390.63467567857765,52.78048780487802 390.63467567857765,189.3658536585366 365.2875906897648,204.0" stroke="none" /><line stroke="black" stroke-linecap="round" stroke-width="6" x1="390.63467567857765" x2="390.63467567857765" y1="57.28048780487802" y2="184.8658536585366" /><polygon fill="white" points="492.023015633829,174.7317073170732 466.67593064501614,160.09756097560978 466.67593064501614,189.3658536585366 492.023015633829,204.0" stroke="none" /><polygon fill="white" points="492.023015633829,174.7317073170732 576.5132989298718,125.95121951219512 551.1662139410589,111.31707317073172 466.67593064501614,160.09756097560978" stroke="none" /><polygon fill="black" points="492.023015633829,174.7317073170732 576.5132989298718,125.95121951219512 576.5132989298718,155.21951219512195 492.023015633829,204.0" stroke="none" /><line stroke="black" stroke-linecap="round" stroke-width="6" x1="551.1662139410589" x2="576.5132989298718" y1="111.31707317073172" y2="125.95121951219512" /><line stroke="black" stroke-linecap="round" stroke-width="6" x1="576.5132989298718" x2="576.5132989298718" y1="125.95121951219512" y2="155.21951219512195" /><line stroke="black" stroke-linecap="round" stroke-width="6" x1="576.5132989298718" x2="492.023015633829" y1="155.21951219512195" y2="204.0" /><line stroke="black" stroke-linecap="round" stroke-width="6" x1="492.023015633829" x2="466.67593064501614" y1="204.0" y2="189.3658536585366" /><line stroke="black" stroke-linecap="round" stroke-width="6" x1="466.67593064501614" x2="466.67593064501614" y1="189.3658536585366" y2="160.09756097560978" /><line stroke="black" stroke-linecap="round" stroke-width="6" x1="466.67593064501614" x2="551.1662139410589" y1="160.09756097560978" y2="111.31707317073172" /><line stroke="black" stroke-linecap="round" stroke-width="6" x1="492.023015633829" x2="492.023015633829" y1="174.7317073170732" y2="204.0" /><line stroke="black" stroke-linecap="round" stroke-width="6" x1="492.023015633829" x2="576.5132989298718" y1="174.7317073170732" y2="125.95121951219512" /><line stroke="black" stroke-linecap="round" stroke-width="6" x1="492.023015633829" x2="466.67593064501614" y1="174.7317073170732" y2="160.09756097560978" /><polygon fill="white" points="551.166213941059,116.1951219512195 525.8191289522462,101.5609756097561 525.8191289522462,125.95121951219512 551.166213941059,140.58536585365852" stroke="none" /><polygon fill="white" points="551.166213941059,116.1951219512195 576.5132989298718,101.5609756097561 551.1662139410589,86.92682926829269 525.8191289522462,101.5609756097561" stroke="none" /><polygon fill="black" points="492.023015633829,174.7317073170732 576.5132989298718,125.95121951219512 576.5132989298718,155.21951219512195 492.023015633829,204.0" stroke="none" /><polygon fill="black" points="551.166213941059,116.1951219512195 576.5132989298718,101.5609756097561 576.5132989298718,125.95121951219512 551.166213941059,140.58536585365852" stroke="none" /><line stroke="black" stroke-linecap="round" stroke-width="6" x1="551.1662139410589" x2="576.5132989298718" y1="86.92682926829269" y2="101.5609756097561" /><line stroke="black" stroke-linecap="round" stroke-width="6" x1="576.5132989298718" x2="576.5132989298718" y1="101.5609756097561" y2="125.95121951219512" /><line stroke="black" stroke-linecap="round" stroke-width="6" x1="576.5132989298718" x2="551.166213941059" y1="125.95121951219512" y2="140.58536585365852" /><line stroke="black" stroke-linecap="round" stroke-width="6" x1="551.166213941059" x2="525.8191289522462" y1="140.58536585365852" y2="125.95121951219512" /><line stroke="black" stroke-linecap="round" stroke-width="6" x1="525.8191289522462" x2="525.8191289522462" y1="125.95121951219512" y2="101.5609756097561" /><line stroke="black" stroke-linecap="round" stroke-width="6" x1="525.8191289522462" x2="551.1662139410589" y1="101.5609756097561" y2="86.92682926829269" /><line stroke="black" stroke-linecap="round" stroke-width="6" x1="551.166213941059" x2="551.166213941059" y1="116.1951219512195" y2="140.58536585365852" /><line stroke="black" stroke-linecap="round" stroke-width="6" x1="551.166213941059" x2="576.5132989298718" y1="116.1951219512195" y2="101.5609756097561" /><line stroke="black" stroke-linecap="round" stroke-width="6" x1="551.166213941059" x2="525.8191289522462" y1="116.1951219512195" y2="101.5609756097561" /><polygon fill="white" points="492.023015633829,121.07317073170732 466.67593064501614,106.43902439024392 466.67593064501614,135.70731707317074 492.023015633829,150.34146341463415" stroke="none" /><polygon fill="white" points="492.023015633829,121.07317073170732 576.5132989298718,72.29268292682929 551.1662139410589,57.65853658536588 466.67593064501614,106.43902439024392" stroke="none" /><polygon fill="black" points="492.023015633829,174.7317073170732 576.5132989298718,125.95121951219512 576.5132989298718,155.21951219512195 492.023015633829,204.0" stroke="none" /><polygon fill="black" points="551.166213941059,116.1951219512195 576.5132989298718,101.5609756097561 576.5132989298718,125.95121951219512 551.166213941059,140.58536585365852" stroke="none" /><polygon fill="black" points="492.023015633829,121.07317073170732 576.5132989298718,72.29268292682929 576.5132989298718,101.5609756097561 492.023015633829,150.34146341463415" stroke="none" /><line stroke="black" stroke-linecap="round" stroke-width="6" x1="551.1662139410589" x2="576.5132989298718" y1="57.65853658536588" y2="72.29268292682929" /><line stroke="black" stroke-linecap="round" stroke-width="6" x1="576.5132989298718" x2="576.5132989298718" y1="72.29268292682929" y2="101.5609756097561" /><line stroke="black" stroke-linecap="round" stroke-width="6" x1="576.5132989298718" x2="492.023015633829" y1="101.5609756097561" y2="150.34146341463415" /><line stroke="black" stroke-linecap="round" stroke-width="6" x1="492.023015633829" x2="466.67593064501614" y1="150.34146341463415" y2="135.70731707317074" /><line stroke="black" stroke-linecap="round" stroke-width="6" x1="466.67593064501614" x2="466.67593064501614" y1="135.70731707317074" y2="106.43902439024392" /><line stroke="black" stroke-linecap="round" stroke-width="6" x1="466.67593064501614" x2="551.1662139410589" y1="106.43902439024392" y2="57.65853658536588" /><line stroke="black" stroke-linecap="round" stroke-width="6" x1="492.023015633829" x2="492.023015633829" y1="121.07317073170732" y2="150.34146341463415" /><line stroke="black" stroke-linecap="round" stroke-width="6" x1="492.023015633829" x2="576.5132989298718" y1="121.07317073170732" y2="72.29268292682929" /><line stroke="black" stroke-linecap="round" stroke-width="6" x1="492.023015633829" x2="466.67593064501614" y1="121.07317073170732" y2="106.43902439024392" /><polygon fill="white" points="492.023015633829,96.68292682926828 466.67593064501614,82.04878048780488 466.67593064501614,106.43902439024392 492.023015633829,121.07317073170732" stroke="none" /><polygon fill="white" points="492.023015633829,96.68292682926828 517.3701006226419,82.04878048780488 492.023015633829,67.41463414634148 466.67593064501614,82.04878048780488" stroke="none" /><polygon fill="black" points="492.023015633829,174.7317073170732 576.5132989298718,125.95121951219512 576.5132989298718,155.21951219512195 492.023015633829,204.0" stroke="none" /><polygon fill="black" points="551.166213941059,116.1951219512195 576.5132989298718,101.5609756097561 576.5132989298718,125.95121951219512 551.166213941059,140.58536585365852" stroke="none" /><polygon fill="black" points="492.023015633829,121.07317073170732 576.5132989298718,72.29268292682929 576.5132989298718,101.5609756097561 492.023015633829,150.34146341463415" stroke="none" /><polygon fill="black" points="492.023015633829,96.68292682926828 517.3701006226419,82.04878048780488 517.3701006226419,106.43902439024392 492.023015633829,121.07317073170732" stroke="none" /><line stroke="black" stroke-linecap="round" stroke-width="6" x1="492.023015633829" x2="517.3701006226419" y1="67.41463414634148" y2="82.04878048780488" /><line stroke="black" stroke-linecap="round" stroke-width="6" x1="517.3701006226419" x2="517.3701006226419" y1="82.04878048780488" y2="106.43902439024392" /><line stroke="black" stroke-linecap="round" stroke-width="6" x1="517.3701006226419" x2="492.023015633829" y1="106.43902439024392" y2="121.07317073170732" /><line stroke="black" stroke-linecap="round" stroke-width="6" x1="492.023015633829" x2="466.67593064501614" y1="121.07317073170732" y2="106.43902439024392" /><line stroke="black" stroke-linecap="round" stroke-width="6" x1="466.67593064501614" x2="466.67593064501614" y1="106.43902439024392" y2="82.04878048780488" /><line stroke="black" stroke-linecap="round" stroke-width="6" x1="466.67593064501614" x2="492.023015633829" y1="82.04878048780488" y2="67.41463414634148" /><line stroke="black" stroke-linecap="round" stroke-width="6" x1="492.023015633829" x2="492.023015633829" y1="96.68292682926828" y2="121.07317073170732" /><line stroke="black" stroke-linecap="round" stroke-width="6" x1="492.023015633829" x2="517.3701006226419" y1="96.68292682926828" y2="82.04878048780488" /><line stroke="black" stroke-linecap="round" stroke-width="6" x1="492.023015633829" x2="466.67593064501614" y1="96.68292682926828" y2="82.04878048780488" /><polygon fill="white" points="492.023015633829,67.41463414634146 466.67593064501614,52.78048780487805 466.67593064501614,82.04878048780488 492.023015633829,96.68292682926828" stroke="none" /><polygon fill="white" points="492.023015633829,67.41463414634146 576.5132989298718,18.634146341463406 551.1662139410589,4.0 466.67593064501614,52.78048780487805" stroke="none" /><polygon fill="black" points="492.023015633829,174.7317073170732 576.5132989298718,125.95121951219512 576.5132989298718,155.21951219512195 492.023015633829,204.0" stroke="none" /><polygon fill="black" points="551.166213941059,116.1951219512195 576.5132989298718,101.5609756097561 576.5132989298718,125.95121951219512 551.166213941059,140.58536585365852" stroke="none" /><polygon fill="black" points="492.023015633829,121.07317073170732 576.5132989298718,72.29268292682929 576.5132989298718,101.5609756097561 492.023015633829,150.34146341463415" stroke="none" /><polygon fill="black" points="492.023015633829,96.68292682926828 517.3701006226419,82.04878048780488 517.3701006226419,106.43902439024392 492.023015633829,121.07317073170732" stroke="none" /><polygon fill="black" points="492.023015633829,67.41463414634146 576.5132989298718,18.634146341463406 576.5132989298718,47.90243902439022 492.023015633829,96.68292682926828" stroke="none" /><line stroke="black" stroke-linecap="round" stroke-width="6" x1="551.1662139410589" x2="576.5132989298718" y1="4.0" y2="18.634146341463406" /><line stroke="black" stroke-linecap="round" stroke-width="6" x1="576.5132989298718" x2="576.5132989298718" y1="18.634146341463406" y2="47.90243902439022" /><line stroke="black" stroke-linecap="round" stroke-width="6" x1="576.5132989298718" x2="492.023015633829" y1="47.90243902439022" y2="96.68292682926828" /><line stroke="black" stroke-linecap="round" stroke-width="6" x1="492.023015633829" x2="466.67593064501614" y1="96.68292682926828" y2="82.04878048780488" /><line stroke="black" stroke-linecap="round" stroke-width="6" x1="466.67593064501614" x2="466.67593064501614" y1="82.04878048780488" y2="52.78048780487805" /><line stroke="black" stroke-linecap="round" stroke-width="6" x1="466.67593064501614" x2="551.1662139410589" y1="52.78048780487805" y2="4.0" /><line stroke="black" stroke-linecap="round" stroke-width="6" x1="492.023015633829" x2="492.023015633829" y1="67.41463414634146" y2="96.68292682926828" /><line stroke="black" stroke-linecap="round" stroke-width="6" x1="492.023015633829" x2="576.5132989298718" y1="67.41463414634146" y2="18.634146341463406" /><line stroke="black" stroke-linecap="round" stroke-width="6" x1="492.023015633829" x2="466.67593064501614" y1="67.41463414634146" y2="52.78048780487805" /><polygon fill="white" points="492.023015633829,174.7317073170732 466.67593064501614,160.09756097560978 466.67593064501614,189.3658536585366 492.023015633829,204.0" stroke="none" /><polygon fill="white" points="492.023015633829,174.7317073170732 576.5132989298718,125.95121951219512 551.1662139410589,111.31707317073172 466.67593064501614,160.09756097560978" stroke="none" /><polygon fill="black" points="492.023015633829,174.7317073170732 576.5132989298718,125.95121951219512 576.5132989298718,155.21951219512195 492.023015633829,204.0" stroke="none" /><polygon fill="white" points="551.166213941059,116.1951219512195 525.8191289522462,101.5609756097561 525.8191289522462,125.95121951219512 551.166213941059,140.58536585365852" stroke="none" /><polygon fill="white" points="551.166213941059,116.1951219512195 576.5132989298718,101.5609756097561 551.1662139410589,86.92682926829269 525.8191289522462,101.5609756097561" stroke="none" /><polygon fill="black" points="492.023015633829,174.7317073170732 576.5132989298718,125.95121951219512 576.5132989298718,155.21951219512195 492.023015633829,204.0" stroke="none" /><polygon fill="black" points="551.166213941059,116.1951219512195 576.5132989298718,101.5609756097561 576.5132989298718,125.95121951219512 551.166213941059,140.58536585365852" stroke="none" /><polygon fill="white" points="492.023015633829,121.07317073170732 466.67593064501614,106.43902439024392 466.67593064501614,135.70731707317074 492.023015633829,150.34146341463415" stroke="none" /><polygon fill="white" points="492.023015633829,121.07317073170732 576.5132989298718,72.29268292682929 551.1662139410589,57.65853658536588 466.67593064501614,106.43902439024392" stroke="none" /><polygon fill="black" points="492.023015633829,174.7317073170732 576.5132989298718,125.95121951219512 576.5132989298718,155.21951219512195 492.023015633829,204.0" stroke="none" /><polygon fill="black" points="551.166213941059,116.1951219512195 576.5132989298718,101.5609756097561 576.5132989298718,125.95121951219512 551.166213941059,140.58536585365852" stroke="none" /><polygon fill="black" points="492.023015633829,121.07317073170732 576.5132989298718,72.29268292682929 576.5132989298718,101.5609756097561 492.023015633829,150.34146341463415" stroke="none" /><polygon fill="white" points="492.023015633829,96.68292682926828 466.67593064501614,82.04878048780488 466.67593064501614,106.43902439024392 492.023015633829,121.07317073170732" stroke="none" /><polygon fill="white" points="492.023015633829,96.68292682926828 517.3701006226419,82.04878048780488 492.023015633829,67.41463414634148 466.67593064501614,82.04878048780488" stroke="none" /><polygon fill="black" points="492.023015633829,174.7317073170732 576.5132989298718,125.95121951219512 576.5132989298718,155.21951219512195 492.023015633829,204.0" stroke="none" /><polygon fill="black" points="551.166213941059,116.1951219512195 576.5132989298718,101.5609756097561 576.5132989298718,125.95121951219512 551.166213941059,140.58536585365852" stroke="none" /><polygon fill="black" points="492.023015633829,121.07317073170732 576.5132989298718,72.29268292682929 576.5132989298718,101.5609756097561 492.023015633829,150.34146341463415" stroke="none" /><polygon fill="black" points="492.023015633829,96.68292682926828 517.3701006226419,82.04878048780488 517.3701006226419,106.43902439024392 492.023015633829,121.07317073170732" stroke="none" /><polygon fill="white" points="492.023015633829,67.41463414634146 466.67593064501614,52.78048780487805 466.67593064501614,82.04878048780488 492.023015633829,96.68292682926828" stroke="none" /><polygon fill="white" points="492.023015633829,67.41463414634146 576.5132989298718,18.634146341463406 551.1662139410589,4.0 466.67593064501614,52.78048780487805" stroke="none" /><polygon fill="black" points="492.023015633829,174.7317073170732 576.5132989298718,125.95121951219512 576.5132989298718,155.21951219512195 492.023015633829,204.0" stroke="none" /><polygon fill="black" points="551.166213941059,116.1951219512195 576.5132989298718,101.5609756097561 576.5132989298718,125.95121951219512 551.166213941059,140.58536585365852" stroke="none" /><polygon fill="black" points="492.023015633829,121.07317073170732 576.5132989298718,72.29268292682929 576.5132989298718,101.5609756097561 492.023015633829,150.34146341463415" stroke="none" /><polygon fill="black" points="492.023015633829,96.68292682926828 517.3701006226419,82.04878048780488 517.3701006226419,106.43902439024392 492.023015633829,121.07317073170732" stroke="none" /><polygon fill="black" points="492.023015633829,67.41463414634146 576.5132989298718,18.634146341463406 576.5132989298718,47.90243902439022 492.023015633829,96.68292682926828" stroke="none" /><line stroke="black" stroke-linecap="round" stroke-width="6" x1="572.6161846128418" x2="495.92012995085895" y1="50.15243902439022" y2="94.43292682926828" /><polygon fill="white" points="648.3300397315081,79.60975609756098 622.9829547426953,64.97560975609758 622.9829547426953,189.3658536585366 648.3300397315081,204.0" stroke="none" /><polygon fill="white" points="648.3300397315081,79.60975609756098 673.677124720321,64.97560975609758 648.3300397315081,50.34146341463412 622.9829547426953,64.97560975609758" stroke="none" /><polygon fill="black" points="648.3300397315081,79.60975609756098 673.677124720321,64.97560975609758 673.677124720321,189.3658536585366 648.3300397315081,204.0" stroke="none" /><line stroke="black" stroke-linecap="round" stroke-width="6" x1="648.3300397315081" x2="673.677124720321" y1="50.34146341463412" y2="64.97560975609758" /><line stroke="black" stroke-linecap="round" stroke-width="6" x1="673.677124720321" x2="673.677124720321" y1="64.97560975609758" y2="189.3658536585366" /><line stroke="black" stroke-linecap="round" stroke-width="6" x1="673.677124720321" x2="648.3300397315081" y1="189.3658536585366" y2="204.0" /><line stroke="black" stroke-linecap="round" stroke-width="6" x1="648.3300397315081" x2="622.9829547426953" y1="204.0" y2="189.3658536585366" /><line stroke="black" stroke-linecap="round" stroke-width="6" x1="622.9829547426953" x2="622.9829547426953" y1="189.3658536585366" y2="64.97560975609758" /><line stroke="black" stroke-linecap="round" stroke-width="6" x1="622.9829547426953" x2="648.3300397315081" y1="64.97560975609758" y2="50.34146341463412" /><line stroke="black" stroke-linecap="round" stroke-width="6" x1="648.3300397315081" x2="648.3300397315081" y1="79.60975609756098" y2="204.0" /><line stroke="black" stroke-linecap="round" stroke-width="6" x1="648.3300397315081" x2="673.677124720321" y1="79.60975609756098" y2="64.97560975609758" /><line stroke="black" stroke-linecap="round" stroke-width="6" x1="648.3300397315081" x2="622.9829547426953" y1="79.60975609756098" y2="64.97560975609758" /><polygon fill="white" points="618.7584405778932,67.41463414634146 593.4113555890804,52.78048780487805 593.4113555890804,82.04878048780488 618.7584405778932,96.68292682926828" stroke="none" /><polygon fill="white" points="618.7584405778932,67.41463414634146 703.2487238739359,18.634146341463463 677.901638885123,4.000000000000057 593.4113555890804,52.78048780487805" stroke="none" /><polygon fill="black" points="648.3300397315081,79.60975609756098 673.677124720321,64.97560975609758 673.677124720321,189.3658536585366 648.3300397315081,204.0" stroke="none" /><polygon fill="black" points="618.7584405778932,67.41463414634146 703.2487238739359,18.634146341463463 703.2487238739359,47.902439024390276 618.7584405778932,96.68292682926828" stroke="none" /><line stroke="black" stroke-linecap="round" stroke-width="6" x1="677.901638885123" x2="703.2487238739359" y1="4.000000000000057" y2="18.634146341463463" /><line stroke="black" stroke-linecap="round" stroke-width="6" x1="703.2487238739359" x2="703.2487238739359" y1="18.634146341463463" y2="47.902439024390276" /><line stroke="black" stroke-linecap="round" stroke-width="6" x1="703.2487238739359" x2="618.7584405778932" y1="47.902439024390276" y2="96.68292682926828" /><line stroke="black" stroke-linecap="round" stroke-width="6" x1="618.7584405778932" x2="593.4113555890804" y1="96.68292682926828" y2="82.04878048780488" /><line stroke="black" stroke-linecap="round" stroke-width="6" x1="593.4113555890804" x2="593.4113555890804" y1="82.04878048780488" y2="52.78048780487805" /><line stroke="black" stroke-linecap="round" stroke-width="6" x1="593.4113555890804" x2="677.901638885123" y1="52.78048780487805" y2="4.000000000000057" /><line stroke="black" stroke-linecap="round" stroke-width="6" x1="618.7584405778932" x2="618.7584405778932" y1="67.41463414634146" y2="96.68292682926828" /><line stroke="black" stroke-linecap="round" stroke-width="6" x1="618.7584405778932" x2="703.2487238739359" y1="67.41463414634146" y2="18.634146341463463" /><line stroke="black" stroke-linecap="round" stroke-width="6" x1="618.7584405778932" x2="593.4113555890804" y1="67.41463414634146" y2="52.78048780487805" /><polygon fill="white" points="648.3300397315081,79.60975609756098 622.9829547426953,64.97560975609758 622.9829547426953,189.3658536585366 648.3300397315081,204.0" stroke="none" /><polygon fill="white" points="648.3300397315081,79.60975609756098 673.677124720321,64.97560975609758 648.3300397315081,50.34146341463412 622.9829547426953,64.97560975609758" stroke="none" /><polygon fill="black" points="648.3300397315081,79.60975609756098 673.677124720321,64.97560975609758 673.677124720321,189.3658536585366 648.3300397315081,204.0" stroke="none" /><polygon fill="white" points="618.7584405778932,67.41463414634146 593.4113555890804,52.78048780487805 593.4113555890804,82.04878048780488 618.7584405778932,96.68292682926828" stroke="none" /><polygon fill="white" points="618.7584405778932,67.41463414634146 703.2487238739359,18.634146341463463 677.901638885123,4.000000000000057 593.4113555890804,52.78048780487805" stroke="none" /><polygon fill="black" points="648.3300397315081,79.60975609756098 673.677124720321,64.97560975609758 673.677124720321,189.3658536585366 648.3300397315081,204.0" stroke="none" /><polygon fill="black" points="618.7584405778932,67.41463414634146 703.2487238739359,18.634146341463463 703.2487238739359,47.902439024390276 618.7584405778932,96.68292682926828" stroke="none" /><line stroke="black" stroke-linecap="round" stroke-width="6" x1="703.2487238739359" x2="703.2487238739359" y1="18.634146341463463" y2="47.902439024390276" /><line stroke="black" stroke-linecap="round" stroke-width="6" x1="703.2487238739359" x2="618.7584405778932" y1="47.902439024390276" y2="96.68292682926828" /><line stroke="black" stroke-linecap="round" stroke-width="6" x1="618.7584405778932" x2="618.7584405778932" y1="67.41463414634146" y2="96.68292682926828" /><line stroke="black" stroke-linecap="round" stroke-width="6" x1="618.7584405778932" x2="703.2487238739359" y1="67.41463414634146" y2="18.634146341463463" /></svg>