<?xml version="1.0" encoding="utf-8" ?>
<svg baseProfile="full" height="206.0" version="1.1" width="179.20508075688775" xmlns="http://www.w3.org/2000/svg" xmlns:ev="http://www.w3.org/2001/xml-events" xmlns:xlink="http://www.w3.org/1999/xlink"><defs /><polygon fill="#B8B8B8" points="3.0,53.0 31.867513459481295,69.66666666666669 31.867513459481295,136.33333333333334 89.60254037844388,169.66666666666669 89.60254037844388,203.0 3.0,153.0" stroke="none" /><polygon fill="#DCDCDC" points="31.867513459481295,69.66666666666669 118.47005383792518,19.666666666666686 118.47005383792518,86.33333333333336 31.867513459481295,136.33333333333334" stroke="none" /><polygon fill="#FFFFFF" points="31.867513459481295,136.33333333333334 118.47005383792518,86.33333333333336 176.20508075688775,119.66666666666669 89.60254037844388,169.66666666666669" stroke="none" /><polygon fill="#DCDCDC" points="89.60254037844388,169.66666666666669 176.20508075688775,119.66666666666669 176.20508075688775,153.0 89.60254037844388,203.0" stroke="none" /><polygon fill="#FFFFFF" points="89.60254037844388,3.0 118.47005383792518,19.666666666666686 31.867513459481295,69.66666666666669 3.0,53.0" stroke="none" /><line stroke="black" stroke-linecap="round" stroke-width="6" x1="3.0" x2="31.867513459481295" y1="53.0" y2="69.66666666666669" /><line stroke="black" stroke-linecap="round" stroke-width="6" x1="31.867513459481295" x2="31.867513459481295" y1="69.66666666666669" y2="136.33333333333334" /><line stroke="black" stroke-linecap="round" stroke-width="6" x1="31.867513459481295" x2="89.60254037844388" y1="136.33333333333334" y2="169.66666666666669" /><line stroke="black" stroke-linecap="round" stroke-width="6" x1="89.60254037844388" x2="89.60254037844388" y1="169.66666666666669" y2="203.0" /><line stroke="black" stroke-linecap="round" stroke-width="6" x1="89.60254037844388" x2="3.0" y1="203.0" y2="153.0" /><line stroke="black" stroke-linecap="round" stroke-width="6" x1="3.0" x2="3.0" y1="153.0" y2="53.0" /><line stroke="black" stroke-linecap="round" stroke-width="6" x1="3.0" x2="89.60254037844388" y1="53.0" y2="3.0" /><line stroke="black" stroke-linecap="round" stroke-width="6" x1="31.867513459481295" x2="118.47005383792518" y1="69.66666666666669" y2="19.666666666666686" /><line stroke="black" stroke-linecap="round" stroke-width="6" x1="89.60254037844388" x2="118.47005383792518" y1="3.0" y2="19.666666666666686" /><line stroke="black" stroke-linecap="round" stroke-width="6" x1="89.60254037844388" x2="176.20508075688775" y1="203.0" y2="153.0" /><line stroke="black" stroke-linecap="round" stroke-width="6" x1="89.60254037844388" x2="176.20508075688775" y1="169.66666666666669" y2="119.66666666666669" /><line stroke="black" stroke-linecap="round" stroke-width="6" x1="176.20508075688775" x2="176.20508075688775" y1="153.0" y2="119.66666666666669" /><line stroke="black" stroke-linecap="round" stroke-width="6" x1="118.47005383792518" x2="118.47005383792518" y1="19.666666666666686" y2="86.33333333333336" /><line stroke="black" stroke-linecap="round" stroke-width="6" x1="118.47005383792518" x2="176.20508075688775" y1="86.33333333333336" y2="119.66666666666669" /></svg>