<?xml version="1.0" encoding="utf-8" ?>
<svg baseProfile="full" height="206.0" version="1.1" width="179.20508075688775" xmlns="http://www.w3.org/2000/svg" xmlns:ev="http://www.w3.org/2001/xml-events" xmlns:xlink="http://www.w3.org/1999/xlink"><defs /><polygon fill="#487E82" points="89.60254037844388,103.0 60.73502691896259,86.33333333333334 60.73502691896259,119.66666666666667 89.60254037844388,136.33333333333331" stroke="none" /><polygon fill="#5A9EA3" points="89.60254037844388,103.0 176.20508075688775,53.0 176.20508075688775,86.33333333333334 89.60254037844388,136.33333333333331" stroke="none" /><polygon fill="#6CB5BA" points="89.60254037844388,103.0 176.20508075688775,53.0 147.33756729740645,36.33333333333334 60.73502691896259,86.33333333333334" stroke="none" /><line stroke="black" stroke-linecap="round" stroke-width="6" x1="89.60254037844388" x2="176.20508075688775" y1="103.0" y2="53.0" /><line stroke="black" stroke-linecap="round" stroke-width="6" x1="89.60254037844388" x2="60.73502691896259" y1="103.0" y2="86.33333333333334" /><line stroke="black" stroke-linecap="round" stroke-width="6" x1="89.60254037844388" x2="89.60254037844388" y1="103.0" y2="136.33333333333331" /><line stroke="black" stroke-linecap="round" stroke-width="6" x1="176.20508075688775" x2="147.33756729740645" y1="53.0" y2="36.33333333333334" /><line stroke="black" stroke-linecap="round" stroke-width="6" x1="147.33756729740645" x2="60.73502691896259" y1="36.33333333333334" y2="86.33333333333334" /><line stroke="black" stroke-linecap="round" stroke-width="6" x1="176.20508075688775" x2="176.20508075688775" y1="53.0" y2="86.33333333333334" /><line stroke="black" stroke-linecap="round" stroke-width="6" x1="176.20508075688775" x2="89.60254037844388" y1="86.33333333333334" y2="136.33333333333331" /><line stroke="black" stroke-linecap="round" stroke-width="6" x1="60.73502691896259" x2="60.73502691896259" y1="86.33333333333334" y2="119.66666666666667" /><line stroke="black" stroke-linecap="round" stroke-width="6" x1="60.73502691896259" x2="89.60254037844388" y1="119.66666666666667" y2="136.33333333333331" /></svg>