<?xml version="1.0" encoding="utf-8" ?>
<svg baseProfile="full" height="206.0" version="1.1" width="179.20508075688775" xmlns="http://www.w3.org/2000/svg" xmlns:ev="http://www.w3.org/2001/xml-events" xmlns:xlink="http://www.w3.org/1999/xlink"><defs /><polygon fill="#000000" points="31.867513459481295,69.66666666666669 60.73502691896259,86.33333333333334 60.73502691896259,119.66666666666667 89.60254037844388,136.33333333333331 89.60254037844388,169.66666666666669 31.867513459481295,136.33333333333334" stroke="none" /><polygon fill="#000000" points="60.73502691896259,86.33333333333334 147.33756729740645,36.33333333333334 147.33756729740645,69.66666666666669 60.73502691896259,119.66666666666667" stroke="none" /><polygon fill="#000000" points="60.73502691896259,119.66666666666667 147.33756729740645,69.66666666666669 176.20508075688775,86.33333333333334 89.60254037844388,136.33333333333331" stroke="none" /><polygon fill="#000000" points="89.60254037844388,136.33333333333331 176.20508075688775,86.33333333333334 176.20508075688775,119.66666666666669 89.60254037844388,169.66666666666669" stroke="none" /><polygon fill="#000000" points="147.33756729740645,36.33333333333334 118.47005383792518,19.666666666666686 31.867513459481295,69.66666666666669 60.73502691896259,86.33333333333334" stroke="none" /><line stroke="black" stroke-linecap="round" stroke-width="6" x1="31.867513459481295" x2="60.73502691896259" y1="69.66666666666669" y2="86.33333333333334" /><line stroke="black" stroke-linecap="round" stroke-width="6" x1="60.73502691896259" x2="60.73502691896259" y1="86.33333333333334" y2="119.66666666666667" /><line stroke="black" stroke-linecap="round" stroke-width="6" x1="60.73502691896259" x2="89.60254037844388" y1="119.66666666666667" y2="136.33333333333331" /><line stroke="black" stroke-linecap="round" stroke-width="6" x1="89.60254037844388" x2="89.60254037844388" y1="136.33333333333331" y2="169.66666666666669" /><line stroke="black" stroke-linecap="round" stroke-width="6" x1="89.60254037844388" x2="31.867513459481295" y1="169.66666666666669" y2="136.33333333333334" /><line stroke="black" stroke-linecap="round" stroke-width="6" x1="31.867513459481295" x2="31.867513459481295" y1="136.33333333333334" y2="69.66666666666669" /><line stroke="black" stroke-linecap="round" stroke-width="6" x1="60.73502691896259" x2="147.33756729740645" y1="86.33333333333334" y2="36.33333333333334" /><line stroke="black" stroke-linecap="round" stroke-width="6" x1="31.867513459481295" x2="118.47005383792518" y1="69.66666666666669" y2="19.666666666666686" /><line stroke="black" stroke-linecap="round" stroke-width="6" x1="147.33756729740645" x2="118.47005383792518" y1="36.33333333333334" y2="19.666666666666686" /><line stroke="black" stroke-linecap="round" stroke-width="6" x1="89.60254037844388" x2="176.20508075688775" y1="136.33333333333331" y2="86.33333333333334" /><line stroke="black" stroke-linecap="round" stroke-width="6" x1="89.60254037844388" x2="176.20508075688775" y1="169.66666666666669" y2="119.66666666666669" /><line stroke="black" stroke-linecap="round" stroke-width="6" x1="176.20508075688775" x2="176.20508075688775" y1="86.33333333333334" y2="119.66666666666669" /><line stroke="black" stroke-linecap="round" stroke-width="6" x1="147.33756729740645" x2="147.33756729740645" y1="36.33333333333334" y2="69.66666666666669" /><line stroke="black" stroke-linecap="round" stroke-width="6" x1="147.33756729740645" x2="176.20508075688775" y1="69.66666666666669" y2="86.33333333333334" /><line stroke="black" stroke-linecap="round" stroke-width="6" x1="118.47005383792518" x2="118.47005383792518" y1="19.666666666666686" y2="86.33333333333336" /><line stroke="black" stroke-linecap="round" stroke-width="6" x1="118.47005383792518" x2="176.20508075688775" y1="86.33333333333336" y2="119.66666666666669" /></svg>