<?xml version="1.0" encoding="utf-8" ?>
<svg baseProfile="full" height="110.5" version="1.1" width="259.14736709748723" xmlns="http://www.w3.org/2000/svg" xmlns:ev="http://www.w3.org/2001/xml-events" xmlns:xlink="http://www.w3.org/1999/xlink"><defs /><polygon fill="black" points="16.99038105676658,91.5 4.0,84.0 4.0,99.0 16.99038105676658,106.5" stroke="none" /><polygon fill="black" points="16.99038105676658,91.5 60.29165124598852,66.5 47.30127018922194,59.00000000000001 4.0,84.0" stroke="none" /><polygon fill="white" points="16.99038105676658,91.5 60.29165124598852,66.5 60.29165124598852,81.5 16.99038105676658,106.5" stroke="none" /><line stroke="white" stroke-linecap="round" stroke-width="6" x1="47.30127018922194" x2="60.29165124598852" y1="59.00000000000001" y2="66.5" /><line stroke="white" stroke-linecap="round" stroke-width="6" x1="60.29165124598852" x2="60.29165124598852" y1="66.5" y2="81.5" /><line stroke="white" stroke-linecap="round" stroke-width="6" x1="60.29165124598852" x2="16.99038105676658" y1="81.5" y2="106.5" /><line stroke="white" stroke-linecap="round" stroke-width="6" x1="16.99038105676658" x2="4.0" y1="106.5" y2="99.0" /><line stroke="white" stroke-linecap="round" stroke-width="6" x1="4.0" x2="4.0" y1="99.0" y2="84.0" /><line stroke="white" stroke-linecap="round" stroke-width="6" x1="4.0" x2="47.30127018922194" y1="84.0" y2="59.00000000000001" /><line stroke="white" stroke-linecap="round" stroke-width="6" x1="16.99038105676658" x2="16.99038105676658" y1="91.5" y2="106.5" /><line stroke="white" stroke-linecap="round" stroke-width="6" x1="16.99038105676658" x2="60.29165124598852" y1="91.5" y2="66.5" /><line stroke="white" stroke-linecap="round" stroke-width="6" x1="16.99038105676658" x2="4.0" y1="91.5" y2="84.0" /><polygon fill="black" points="16.99038105676658,19.0 4.0,11.5 4.0,84.0 16.99038105676658,91.5" stroke="none" /><polygon fill="black" points="16.99038105676658,19.0 29.98076211353316,11.5 16.99038105676658,4.0 4.0,11.5" stroke="none" /><polygon fill="white" points="16.99038105676658,91.5 60.29165124598852,66.5 60.29165124598852,81.5 16.99038105676658,106.5" stroke="none" /><polygon fill="white" points="16.99038105676658,19.0 29.98076211353316,11.5 29.98076211353316,84.0 16.99038105676658,91.5" stroke="none" /><line stroke="white" stroke-linecap="round" stroke-width="6" x1="16.99038105676658" x2="29.98076211353316" y1="4.0" y2="11.5" /><line stroke="white" stroke-linecap="round" stroke-width="6" x1="29.98076211353316" x2="29.98076211353316" y1="11.5" y2="84.0" /><line stroke="white" stroke-linecap="round" stroke-width="6" x1="29.98076211353316" x2="16.99038105676658" y1="84.0" y2="91.5" /><line stroke="white" stroke-linecap="round" stroke-width="6" x1="16.99038105676658" x2="4.0" y1="91.5" y2="84.0" /><line stroke="white" stroke-linecap="round" stroke-width="6" x1="4.0" x2="4.0" y1="84.0" y2="11.5" /><line stroke="white" stroke-linecap="round" stroke-width="6" x1="4.0" x2="16.99038105676658" y1="11.5" y2="4.0" /><line stroke="white" stroke-linecap="round" stroke-width="6" x1="16.99038105676658" x2="16.99038105676658" y1="19.0" y2="91.5" /><line stroke="white" stroke-linecap="round" stroke-width="6" x1="16.99038105676658" x2="29.98076211353316" y1="19.0" y2="11.5" /><line stroke="white" stroke-linecap="round" stroke-width="6" x1="16.99038105676658" x2="4.0" y1="19.0" y2="11.5" /><polygon fill="black" points="16.99038105676658,91.5 4.0,84.0 4.0,99.0 16.99038105676658,106.5" stroke="none" /><polygon fill="black" points="16.99038105676658,91.5 60.29165124598852,66.5 47.30127018922194,59.00000000000001 4.0,84.0" stroke="none" /><polygon fill="white" points="16.99038105676658,91.5 60.29165124598852,66.5 60.29165124598852,81.5 16.99038105676658,106.5" stroke="none" /><polygon fill="black" points="16.99038105676658,19.0 4.0,11.5 4.0,84.0 16.99038105676658,91.5" stroke="none" /><polygon fill="black" points="16.99038105676658,19.0 29.98076211353316,11.5 16.99038105676658,4.0 4.0,11.5" stroke="none" /><polygon fill="white" points="16.99038105676658,91.5 60.29165124598852,66.5 60.29165124598852,81.5 16.99038105676658,106.5" stroke="none" /><polygon fill="white" points="16.99038105676658,19.0 29.98076211353316,11.5 29.98076211353316,84.0 16.99038105676658,91.5" stroke="none" /><line stroke="white" stroke-linecap="round" stroke-width="6" x1="29.98076211353316" x2="29.98076211353316" y1="16.0" y2="84.0" /><polygon fill="black" points="112.25317547305484,19.0 99.26279441628826,11.5 99.26279441628826,81.5 112.25317547305484,89.0" stroke="none" /><polygon fill="black" points="112.25317547305484,19.0 125.24355652982142,11.5 112.25317547305484,4.0 99.26279441628826,11.5" stroke="none" /><polygon fill="white" points="112.25317547305484,19.0 125.24355652982142,11.5 125.24355652982142,81.5 112.25317547305484,89.0" stroke="none" /><line stroke="white" stroke-linecap="round" stroke-width="6" x1="112.25317547305484" x2="125.24355652982142" y1="4.0" y2="11.5" /><line stroke="white" stroke-linecap="round" stroke-width="6" x1="125.24355652982142" x2="125.24355652982142" y1="11.5" y2="81.5" /><line stroke="white" stroke-linecap="round" stroke-width="6" x1="125.24355652982142" x2="112.25317547305484" y1="81.5" y2="89.0" /><line stroke="white" stroke-linecap="round" stroke-width="6" x1="112.25317547305484" x2="99.26279441628826" y1="89.0" y2="81.5" /><line stroke="white" stroke-linecap="round" stroke-width="6" x1="99.26279441628826" x2="99.26279441628826" y1="81.5" y2="11.5" /><line stroke="white" stroke-linecap="round" stroke-width="6" x1="99.26279441628826" x2="112.25317547305484" y1="11.5" y2="4.0" /><line stroke="white" stroke-linecap="round" stroke-width="6" x1="112.25317547305484" x2="112.25317547305484" y1="19.0" y2="89.0" /><line stroke="white" stroke-linecap="round" stroke-width="6" x1="112.25317547305484" x2="125.24355652982142" y1="19.0" y2="11.5" /><line stroke="white" stroke-linecap="round" stroke-width="6" x1="112.25317547305484" x2="99.26279441628826" y1="19.0" y2="11.5" /><polygon fill="black" points="81.94228634059948,36.5 68.9519052838329,29.0 68.9519052838329,44.0 81.94228634059948,51.5" stroke="none" /><polygon fill="black" points="81.94228634059948,36.5 125.24355652982142,11.5 112.25317547305484,4.0 68.9519052838329,29.0" stroke="none" /><polygon fill="white" points="112.25317547305484,19.0 125.24355652982142,11.5 125.24355652982142,81.5 112.25317547305484,89.0" stroke="none" /><polygon fill="white" points="81.94228634059948,36.5 125.24355652982142,11.5 125.24355652982142,26.5 81.94228634059948,51.5" stroke="none" /><line stroke="white" stroke-linecap="round" stroke-width="6" x1="112.25317547305484" x2="125.24355652982142" y1="4.0" y2="11.5" /><line stroke="white" stroke-linecap="round" stroke-width="6" x1="125.24355652982142" x2="125.24355652982142" y1="11.5" y2="26.5" /><line stroke="white" stroke-linecap="round" stroke-width="6" x1="125.24355652982142" x2="81.94228634059948" y1="26.5" y2="51.5" /><line stroke="white" stroke-linecap="round" stroke-width="6" x1="81.94228634059948" x2="68.9519052838329" y1="51.5" y2="44.0" /><line stroke="white" stroke-linecap="round" stroke-width="6" x1="68.9519052838329" x2="68.9519052838329" y1="44.0" y2="29.0" /><line stroke="white" stroke-linecap="round" stroke-width="6" x1="68.9519052838329" x2="112.25317547305484" y1="29.0" y2="4.0" /><line stroke="white" stroke-linecap="round" stroke-width="6" x1="81.94228634059948" x2="81.94228634059948" y1="36.5" y2="51.5" /><line stroke="white" stroke-linecap="round" stroke-width="6" x1="81.94228634059948" x2="125.24355652982142" y1="36.5" y2="11.5" /><line stroke="white" stroke-linecap="round" stroke-width="6" x1="81.94228634059948" x2="68.9519052838329" y1="36.5" y2="29.0" /><polygon fill="black" points="81.94228634059948,64.0 68.9519052838329,56.5 68.9519052838329,71.5 81.94228634059948,79.0" stroke="none" /><polygon fill="black" points="81.94228634059948,64.0 125.24355652982142,39.0 112.25317547305484,31.5 68.9519052838329,56.5" stroke="none" /><polygon fill="white" points="112.25317547305484,19.0 125.24355652982142,11.5 125.24355652982142,81.5 112.25317547305484,89.0" stroke="none" /><polygon fill="white" points="81.94228634059948,36.5 125.24355652982142,11.5 125.24355652982142,26.5 81.94228634059948,51.5" stroke="none" /><polygon fill="white" points="81.94228634059948,64.0 125.24355652982142,39.0 125.24355652982142,54.0 81.94228634059948,79.0" stroke="none" /><line stroke="white" stroke-linecap="round" stroke-width="6" x1="112.25317547305484" x2="125.24355652982142" y1="31.5" y2="39.0" /><line stroke="white" stroke-linecap="round" stroke-width="6" x1="125.24355652982142" x2="125.24355652982142" y1="39.0" y2="54.0" /><line stroke="white" stroke-linecap="round" stroke-width="6" x1="125.24355652982142" x2="81.94228634059948" y1="54.0" y2="79.0" /><line stroke="white" stroke-linecap="round" stroke-width="6" x1="81.94228634059948" x2="68.9519052838329" y1="79.0" y2="71.5" /><line stroke="white" stroke-linecap="round" stroke-width="6" x1="68.9519052838329" x2="68.9519052838329" y1="71.5" y2="56.5" /><line stroke="white" stroke-linecap="round" stroke-width="6" x1="68.9519052838329" x2="112.25317547305484" y1="56.5" y2="31.5" /><line stroke="white" stroke-linecap="round" stroke-width="6" x1="81.94228634059948" x2="81.94228634059948" y1="64.0" y2="79.0" /><line stroke="white" stroke-linecap="round" stroke-width="6" x1="81.94228634059948" x2="125.24355652982142" y1="64.0" y2="39.0" /><line stroke="white" stroke-linecap="round" stroke-width="6" x1="81.94228634059948" x2="68.9519052838329" y1="64.0" y2="56.5" /><polygon fill="black" points="81.94228634059948,36.5 68.9519052838329,29.0 68.9519052838329,99.0 81.94228634059948,106.5" stroke="none" /><polygon fill="black" points="81.94228634059948,36.5 94.93266739736606,29.0 81.94228634059948,21.5 68.9519052838329,29.0" stroke="none" /><polygon fill="white" points="112.25317547305484,19.0 125.24355652982142,11.5 125.24355652982142,81.5 112.25317547305484,89.0" stroke="none" /><polygon fill="white" points="81.94228634059948,36.5 125.24355652982142,11.5 125.24355652982142,26.5 81.94228634059948,51.5" stroke="none" /><polygon fill="white" points="81.94228634059948,64.0 125.24355652982142,39.0 125.24355652982142,54.0 81.94228634059948,79.0" stroke="none" /><polygon fill="white" points="81.94228634059948,36.5 94.93266739736606,29.0 94.93266739736606,99.0 81.94228634059948,106.5" stroke="none" /><line stroke="white" stroke-linecap="round" stroke-width="6" x1="81.94228634059948" x2="94.93266739736606" y1="21.5" y2="29.0" /><line stroke="white" stroke-linecap="round" stroke-width="6" x1="94.93266739736606" x2="94.93266739736606" y1="29.0" y2="99.0" /><line stroke="white" stroke-linecap="round" stroke-width="6" x1="94.93266739736606" x2="81.94228634059948" y1="99.0" y2="106.5" /><line stroke="white" stroke-linecap="round" stroke-width="6" x1="81.94228634059948" x2="68.9519052838329" y1="106.5" y2="99.0" /><line stroke="white" stroke-linecap="round" stroke-width="6" x1="68.9519052838329" x2="68.9519052838329" y1="99.0" y2="29.0" /><line stroke="white" stroke-linecap="round" stroke-width="6" x1="68.9519052838329" x2="81.94228634059948" y1="29.0" y2="21.5" /><line stroke="white" stroke-linecap="round" stroke-width="6" x1="81.94228634059948" x2="81.94228634059948" y1="36.5" y2="106.5" /><line stroke="white" stroke-linecap="round" stroke-width="6" x1="81.94228634059948" x2="94.93266739736606" y1="36.5" y2="29.0" /><line stroke="white" stroke-linecap="round" stroke-width="6" x1="81.94228634059948" x2="68.9519052838329" y1="36.5" y2="29.0" /><polygon fill="black" points="112.25317547305484,19.0 99.26279441628826,11.5 99.26279441628826,81.5 112.25317547305484,89.0" stroke="none" /><polygon fill="black" points="112.25317547305484,19.0 125.24355652982142,11.5 112.25317547305484,4.0 99.26279441628826,11.5" stroke="none" /><polygon fill="white" points="112.25317547305484,19.0 125.24355652982142,11.5 125.24355652982142,81.5 112.25317547305484,89.0" stroke="none" /><polygon fill="black" points="81.94228634059948,36.5 68.9519052838329,29.0 68.9519052838329,44.0 81.94228634059948,51.5" stroke="none" /><polygon fill="black" points="81.94228634059948,36.5 125.24355652982142,11.5 112.25317547305484,4.0 68.9519052838329,29.0" stroke="none" /><polygon fill="white" points="112.25317547305484,19.0 125.24355652982142,11.5 125.24355652982142,81.5 112.25317547305484,89.0" stroke="none" /><polygon fill="white" points="81.94228634059948,36.5 125.24355652982142,11.5 125.24355652982142,26.5 81.94228634059948,51.5" stroke="none" /><polygon fill="black" points="81.94228634059948,64.0 68.9519052838329,56.5 68.9519052838329,71.5 81.94228634059948,79.0" stroke="none" /><polygon fill="black" points="81.94228634059948,64.0 125.24355652982142,39.0 112.25317547305484,31.5 68.9519052838329,56.5" stroke="none" /><polygon fill="white" points="112.25317547305484,19.0 125.24355652982142,11.5 125.24355652982142,81.5 112.25317547305484,89.0" stroke="none" /><polygon fill="white" points="81.94228634059948,36.5 125.24355652982142,11.5 125.24355652982142,26.5 81.94228634059948,51.5" stroke="none" /><polygon fill="white" points="81.94228634059948,64.0 125.24355652982142,39.0 125.24355652982142,54.0 81.94228634059948,79.0" stroke="none" /><polygon fill="black" points="81.94228634059948,36.5 68.9519052838329,29.0 68.9519052838329,99.0 81.94228634059948,106.5" stroke="none" /><polygon fill="black" points="81.94228634059948,36.5 94.93266739736606,29.0 81.94228634059948,21.5 68.9519052838329,29.0" stroke="none" /><polygon fill="white" points="112.25317547305484,19.0 125.24355652982142,11.5 125.24355652982142,81.5 112.25317547305484,89.0" stroke="none" /><polygon fill="white" points="81.94228634059948,36.5 125.24355652982142,11.5 125.24355652982142,26.5 81.94228634059948,51.5" stroke="none" /><polygon fill="white" points="81.94228634059948,64.0 125.24355652982142,39.0 125.24355652982142,54.0 81.94228634059948,79.0" stroke="none" /><polygon fill="white" points="81.94228634059948,36.5 94.93266739736606,29.0 94.93266739736606,99.0 81.94228634059948,106.5" stroke="none" /><line stroke="white" stroke-linecap="round" stroke-width="6" x1="94.93266739736606" x2="94.93266739736606" y1="33.5" y2="94.5" /><polygon fill="black" points="146.89419162443238,91.5 133.9038105676658,84.0 133.9038105676658,99.0 146.89419162443238,106.5" stroke="none" /><polygon fill="black" points="146.89419162443238,91.5 190.19546181365433,66.5 177.20508075688775,59.0 133.9038105676658,84.0" stroke="none" /><polygon fill="white" points="146.89419162443238,91.5 190.19546181365433,66.5 190.19546181365433,81.5 146.89419162443238,106.5" stroke="none" /><line stroke="white" stroke-linecap="round" stroke-width="6" x1="177.20508075688775" x2="190.19546181365433" y1="59.0" y2="66.5" /><line stroke="white" stroke-linecap="round" stroke-width="6" x1="190.19546181365433" x2="190.19546181365433" y1="66.5" y2="81.5" /><line stroke="white" stroke-linecap="round" stroke-width="6" x1="190.19546181365433" x2="146.89419162443238" y1="81.5" y2="106.5" /><line stroke="white" stroke-linecap="round" stroke-width="6" x1="146.89419162443238" x2="133.9038105676658" y1="106.5" y2="99.0" /><line stroke="white" stroke-linecap="round" stroke-width="6" x1="133.9038105676658" x2="133.9038105676658" y1="99.0" y2="84.0" /><line stroke="white" stroke-linecap="round" stroke-width="6" x1="133.9038105676658" x2="177.20508075688775" y1="84.0" y2="59.0" /><line stroke="white" stroke-linecap="round" stroke-width="6" x1="146.89419162443238" x2="146.89419162443238" y1="91.5" y2="106.5" /><line stroke="white" stroke-linecap="round" stroke-width="6" x1="146.89419162443238" x2="190.19546181365433" y1="91.5" y2="66.5" /><line stroke="white" stroke-linecap="round" stroke-width="6" x1="146.89419162443238" x2="133.9038105676658" y1="91.5" y2="84.0" /><polygon fill="black" points="177.20508075688775,61.5 164.21469970012117,54.0 164.21469970012117,66.5 177.20508075688775,74.0" stroke="none" /><polygon fill="black" points="177.20508075688775,61.5 190.19546181365433,54.0 177.20508075688775,46.5 164.21469970012117,54.0" stroke="none" /><polygon fill="white" points="146.89419162443238,91.5 190.19546181365433,66.5 190.19546181365433,81.5 146.89419162443238,106.5" stroke="none" /><polygon fill="white" points="177.20508075688775,61.5 190.19546181365433,54.0 190.19546181365433,66.5 177.20508075688775,74.0" stroke="none" /><line stroke="white" stroke-linecap="round" stroke-width="6" x1="177.20508075688775" x2="190.19546181365433" y1="46.5" y2="54.0" /><line stroke="white" stroke-linecap="round" stroke-width="6" x1="190.19546181365433" x2="190.19546181365433" y1="54.0" y2="66.5" /><line stroke="white" stroke-linecap="round" stroke-width="6" x1="190.19546181365433" x2="177.20508075688775" y1="66.5" y2="74.0" /><line stroke="white" stroke-linecap="round" stroke-width="6" x1="177.20508075688775" x2="164.21469970012117" y1="74.0" y2="66.5" /><line stroke="white" stroke-linecap="round" stroke-width="6" x1="164.21469970012117" x2="164.21469970012117" y1="66.5" y2="54.0" /><line stroke="white" stroke-linecap="round" stroke-width="6" x1="164.21469970012117" x2="177.20508075688775" y1="54.0" y2="46.5" /><line stroke="white" stroke-linecap="round" stroke-width="6" x1="177.20508075688775" x2="177.20508075688775" y1="61.5" y2="74.0" /><line stroke="white" stroke-linecap="round" stroke-width="6" x1="177.20508075688775" x2="190.19546181365433" y1="61.5" y2="54.0" /><line stroke="white" stroke-linecap="round" stroke-width="6" x1="177.20508075688775" x2="164.21469970012117" y1="61.5" y2="54.0" /><polygon fill="black" points="146.89419162443238,64.0 133.9038105676658,56.5 133.9038105676658,71.5 146.89419162443238,79.0" stroke="none" /><polygon fill="black" points="146.89419162443238,64.0 190.19546181365433,39.0 177.20508075688775,31.5 133.9038105676658,56.5" stroke="none" /><polygon fill="white" points="146.89419162443238,91.5 190.19546181365433,66.5 190.19546181365433,81.5 146.89419162443238,106.5" stroke="none" /><polygon fill="white" points="177.20508075688775,61.5 190.19546181365433,54.0 190.19546181365433,66.5 177.20508075688775,74.0" stroke="none" /><polygon fill="white" points="146.89419162443238,64.0 190.19546181365433,39.0 190.19546181365433,54.0 146.89419162443238,79.0" stroke="none" /><line stroke="white" stroke-linecap="round" stroke-width="6" x1="177.20508075688775" x2="190.19546181365433" y1="31.5" y2="39.0" /><line stroke="white" stroke-linecap="round" stroke-width="6" x1="190.19546181365433" x2="190.19546181365433" y1="39.0" y2="54.0" /><line stroke="white" stroke-linecap="round" stroke-width="6" x1="190.19546181365433" x2="146.89419162443238" y1="54.0" y2="79.0" /><line stroke="white" stroke-linecap="round" stroke-width="6" x1="146.89419162443238" x2="133.9038105676658" y1="79.0" y2="71.5" /><line stroke="white" stroke-linecap="round" stroke-width="6" x1="133.9038105676658" x2="133.9038105676658" y1="71.5" y2="56.5" /><line stroke="white" stroke-linecap="round" stroke-width="6" x1="133.9038105676658" x2="177.20508075688775" y1="56.5" y2="31.5" /><line stroke="white" stroke-linecap="round" stroke-width="6" x1="146.89419162443238" x2="146.89419162443238" y1="64.0" y2="79.0" /><line stroke="white" stroke-linecap="round" stroke-width="6" x1="146.89419162443238" x2="190.19546181365433" y1="64.0" y2="39.0" /><line stroke="white" stroke-linecap="round" stroke-width="6" x1="146.89419162443238" x2="133.9038105676658" y1="64.0" y2="56.5" /><polygon fill="black" points="146.89419162443238,51.5 133.9038105676658,44.0 133.9038105676658,56.5 146.89419162443238,64.0" stroke="none" /><polygon fill="black" points="146.89419162443238,51.5 159.88457268119896,44.0 146.89419162443238,36.5 133.9038105676658,44.0" stroke="none" /><polygon fill="white" points="146.89419162443238,91.5 190.19546181365433,66.5 190.19546181365433,81.5 146.89419162443238,106.5" stroke="none" /><polygon fill="white" points="177.20508075688775,61.5 190.19546181365433,54.0 190.19546181365433,66.5 177.20508075688775,74.0" stroke="none" /><polygon fill="white" points="146.89419162443238,64.0 190.19546181365433,39.0 190.19546181365433,54.0 146.89419162443238,79.0" stroke="none" /><polygon fill="white" points="146.89419162443238,51.5 159.88457268119896,44.0 159.88457268119896,56.5 146.89419162443238,64.0" stroke="none" /><line stroke="white" stroke-linecap="round" stroke-width="6" x1="146.89419162443238" x2="159.88457268119896" y1="36.5" y2="44.0" /><line stroke="white" stroke-linecap="round" stroke-width="6" x1="159.88457268119896" x2="159.88457268119896" y1="44.0" y2="56.5" /><line stroke="white" stroke-linecap="round" stroke-width="6" x1="159.88457268119896" x2="146.89419162443238" y1="56.5" y2="64.0" /><line stroke="white" stroke-linecap="round" stroke-width="6" x1="146.89419162443238" x2="133.9038105676658" y1="64.0" y2="56.5" /><line stroke="white" stroke-linecap="round" stroke-width="6" x1="133.9038105676658" x2="133.9038105676658" y1="56.5" y2="44.0" /><line stroke="white" stroke-linecap="round" stroke-width="6" x1="133.9038105676658" x2="146.89419162443238" y1="44.0" y2="36.5" /><line stroke="white" stroke-linecap="round" stroke-width="6" x1="146.89419162443238" x2="146.89419162443238" y1="51.5" y2="64.0" /><line stroke="white" stroke-linecap="round" stroke-width="6" x1="146.89419162443238" x2="159.88457268119896" y1="51.5" y2="44.0" /><line stroke="white" stroke-linecap="round" stroke-width="6" x1="146.89419162443238" x2="133.9038105676658" y1="51.5" y2="44.0" /><polygon fill="black" points="146.89419162443238,36.5 133.9038105676658,29.0 133.9038105676658,44.0 146.89419162443238,51.5" stroke="none" /><polygon fill="black" points="146.89419162443238,36.5 190.19546181365433,11.5 177.20508075688775,4.0 133.9038105676658,29.0" stroke="none" /><polygon fill="white" points="146.89419162443238,91.5 190.19546181365433,66.5 190.19546181365433,81.5 146.89419162443238,106.5" stroke="none" /><polygon fill="white" points="177.20508075688775,61.5 190.19546181365433,54.0 190.19546181365433,66.5 177.20508075688775,74.0" stroke="none" /><polygon fill="white" points="146.89419162443238,64.0 190.19546181365433,39.0 190.19546181365433,54.0 146.89419162443238,79.0" stroke="none" /><polygon fill="white" points="146.89419162443238,51.5 159.88457268119896,44.0 159.88457268119896,56.5 146.89419162443238,64.0" stroke="none" /><polygon fill="white" points="146.89419162443238,36.5 190.19546181365433,11.5 190.19546181365433,26.5 146.89419162443238,51.5" stroke="none" /><line stroke="white" stroke-linecap="round" stroke-width="6" x1="177.20508075688775" x2="190.19546181365433" y1="4.0" y2="11.5" /><line stroke="white" stroke-linecap="round" stroke-width="6" x1="190.19546181365433" x2="190.19546181365433" y1="11.5" y2="26.5" /><line stroke="white" stroke-linecap="round" stroke-width="6" x1="190.19546181365433" x2="146.89419162443238" y1="26.5" y2="51.5" /><line stroke="white" stroke-linecap="round" stroke-width="6" x1="146.89419162443238" x2="133.9038105676658" y1="51.5" y2="44.0" /><line stroke="white" stroke-linecap="round" stroke-width="6" x1="133.9038105676658" x2="133.9038105676658" y1="44.0" y2="29.0" /><line stroke="white" stroke-linecap="round" stroke-width="6" x1="133.9038105676658" x2="177.20508075688775" y1="29.0" y2="4.0" /><line stroke="white" stroke-linecap="round" stroke-width="6" x1="146.89419162443238" x2="146.89419162443238" y1="36.5" y2="51.5" /><line stroke="white" stroke-linecap="round" stroke-width="6" x1="146.89419162443238" x2="190.19546181365433" y1="36.5" y2="11.5" /><line stroke="white" stroke-linecap="round" stroke-width="6" x1="146.89419162443238" x2="133.9038105676658" y1="36.5" y2="29.0" /><polygon fill="black" points="146.89419162443238,91.5 133.9038105676658,84.0 133.9038105676658,99.0 146.89419162443238,106.5" stroke="none" /><polygon fill="black" points="146.89419162443238,91.5 190.19546181365433,66.5 177.20508075688775,59.0 133.9038105676658,84.0" stroke="none" /><polygon fill="white" points="146.89419162443238,91.5 190.19546181365433,66.5 190.19546181365433,81.5 146.89419162443238,106.5" stroke="none" /><polygon fill="black" points="177.20508075688775,61.5 164.21469970012117,54.0 164.21469970012117,66.5 177.20508075688775,74.0" stroke="none" /><polygon fill="black" points="177.20508075688775,61.5 190.19546181365433,54.0 177.20508075688775,46.5 164.21469970012117,54.0" stroke="none" /><polygon fill="white" points="146.89419162443238,91.5 190.19546181365433,66.5 190.19546181365433,81.5 146.89419162443238,106.5" stroke="none" /><polygon fill="white" points="177.20508075688775,61.5 190.19546181365433,54.0 190.19546181365433,66.5 177.20508075688775,74.0" stroke="none" /><polygon fill="black" points="146.89419162443238,64.0 133.9038105676658,56.5 133.9038105676658,71.5 146.89419162443238,79.0" stroke="none" /><polygon fill="black" points="146.89419162443238,64.0 190.19546181365433,39.0 177.20508075688775,31.5 133.9038105676658,56.5" stroke="none" /><polygon fill="white" points="146.89419162443238,91.5 190.19546181365433,66.5 190.19546181365433,81.5 146.89419162443238,106.5" stroke="none" /><polygon fill="white" points="177.20508075688775,61.5 190.19546181365433,54.0 190.19546181365433,66.5 177.20508075688775,74.0" stroke="none" /><polygon fill="white" points="146.89419162443238,64.0 190.19546181365433,39.0 190.19546181365433,54.0 146.89419162443238,79.0" stroke="none" /><polygon fill="black" points="146.89419162443238,51.5 133.9038105676658,44.0 133.9038105676658,56.5 146.89419162443238,64.0" stroke="none" /><polygon fill="black" points="146.89419162443238,51.5 159.88457268119896,44.0 146.89419162443238,36.5 133.9038105676658,44.0" stroke="none" /><polygon fill="white" points="146.89419162443238,91.5 190.19546181365433,66.5 190.19546181365433,81.5 146.89419162443238,106.5" stroke="none" /><polygon fill="white" points="177.20508075688775,61.5 190.19546181365433,54.0 190.19546181365433,66.5 177.20508075688775,74.0" stroke="none" /><polygon fill="white" points="146.89419162443238,64.0 190.19546181365433,39.0 190.19546181365433,54.0 146.89419162443238,79.0" stroke="none" /><polygon fill="white" points="146.89419162443238,51.5 159.88457268119896,44.0 159.88457268119896,56.5 146.89419162443238,64.0" stroke="none" /><polygon fill="black" points="146.89419162443238,36.5 133.9038105676658,29.0 133.9038105676658,44.0 146.89419162443238,51.5" stroke="none" /><polygon fill="black" points="146.89419162443238,36.5 190.19546181365433,11.5 177.20508075688775,4.0 133.9038105676658,29.0" stroke="none" /><polygon fill="white" points="146.89419162443238,91.5 190.19546181365433,66.5 190.19546181365433,81.5 146.89419162443238,106.5" stroke="none" /><polygon fill="white" points="177.20508075688775,61.5 190.19546181365433,54.0 190.19546181365433,66.5 177.20508075688775,74.0" stroke="none" /><polygon fill="white" points="146.89419162443238,64.0 190.19546181365433,39.0 190.19546181365433,54.0 146.89419162443238,79.0" stroke="none" /><polygon fill="white" points="146.89419162443238,51.5 159.88457268119896,44.0 159.88457268119896,56.5 146.89419162443238,64.0" stroke="none" /><polygon fill="white" points="146.89419162443238,36.5 190.19546181365433,11.5 190.19546181365433,26.5 146.89419162443238,51.5" stroke="none" /><line stroke="white" stroke-linecap="round" stroke-width="6" x1="186.29834749662436" x2="150.79130594146235" y1="28.75" y2="49.25" /><polygon fill="black" points="227.00154147449297,42.75 214.0111604177264,35.250000000000014 214.0111604177264,99.00000000000001 227.00154147449297,106.5" stroke="none" /><polygon fill="black" points="227.00154147449297,42.75 239.99192253125955,35.250000000000014 227.00154147449297,27.750000000000014 214.0111604177264,35.250000000000014" stroke="none" /><polygon fill="white" points="227.00154147449297,42.75 239.99192253125955,35.250000000000014 239.99192253125955,99.00000000000001 227.00154147449297,106.5" stroke="none" /><line stroke="white" stroke-linecap="round" stroke-width="6" x1="227.00154147449297" x2="239.99192253125955" y1="27.750000000000014" y2="35.250000000000014" /><line stroke="white" stroke-linecap="round" stroke-width="6" x1="239.99192253125955" x2="239.99192253125955" y1="35.250000000000014" y2="99.00000000000001" /><line stroke="white" stroke-linecap="round" stroke-width="6" x1="239.99192253125955" x2="227.00154147449297" y1="99.00000000000001" y2="106.5" /><line stroke="white" stroke-linecap="round" stroke-width="6" x1="227.00154147449297" x2="214.0111604177264" y1="106.5" y2="99.00000000000001" /><line stroke="white" stroke-linecap="round" stroke-width="6" x1="214.0111604177264" x2="214.0111604177264" y1="99.00000000000001" y2="35.250000000000014" /><line stroke="white" stroke-linecap="round" stroke-width="6" x1="214.0111604177264" x2="227.00154147449297" y1="35.250000000000014" y2="27.750000000000014" /><line stroke="white" stroke-linecap="round" stroke-width="6" x1="227.00154147449297" x2="227.00154147449297" y1="42.75" y2="106.5" /><line stroke="white" stroke-linecap="round" stroke-width="6" x1="227.00154147449297" x2="239.99192253125955" y1="42.75" y2="35.250000000000014" /><line stroke="white" stroke-linecap="round" stroke-width="6" x1="227.00154147449297" x2="214.0111604177264" y1="42.75" y2="35.250000000000014" /><polygon fill="black" points="211.84609690826528,36.5 198.8557158514987,29.0 198.8557158514987,44.0 211.84609690826528,51.5" stroke="none" /><polygon fill="black" points="211.84609690826528,36.5 255.14736709748723,11.500000000000014 242.15698604072065,4.000000000000014 198.8557158514987,29.0" stroke="none" /><polygon fill="white" points="227.00154147449297,42.75 239.99192253125955,35.250000000000014 239.99192253125955,99.00000000000001 227.00154147449297,106.5" stroke="none" /><polygon fill="white" points="211.84609690826528,36.5 255.14736709748723,11.500000000000014 255.14736709748723,26.500000000000014 211.84609690826528,51.5" stroke="none" /><line stroke="white" stroke-linecap="round" stroke-width="6" x1="242.15698604072065" x2="255.14736709748723" y1="4.000000000000014" y2="11.500000000000014" /><line stroke="white" stroke-linecap="round" stroke-width="6" x1="255.14736709748723" x2="255.14736709748723" y1="11.500000000000014" y2="26.500000000000014" /><line stroke="white" stroke-linecap="round" stroke-width="6" x1="255.14736709748723" x2="211.84609690826528" y1="26.500000000000014" y2="51.5" /><line stroke="white" stroke-linecap="round" stroke-width="6" x1="211.84609690826528" x2="198.8557158514987" y1="51.5" y2="44.0" /><line stroke="white" stroke-linecap="round" stroke-width="6" x1="198.8557158514987" x2="198.8557158514987" y1="44.0" y2="29.0" /><line stroke="white" stroke-linecap="round" stroke-width="6" x1="198.8557158514987" x2="242.15698604072065" y1="29.0" y2="4.000000000000014" /><line stroke="white" stroke-linecap="round" stroke-width="6" x1="211.84609690826528" x2="211.84609690826528" y1="36.5" y2="51.5" /><line stroke="white" stroke-linecap="round" stroke-width="6" x1="211.84609690826528" x2="255.14736709748723" y1="36.5" y2="11.500000000000014" /><line stroke="white" stroke-linecap="round" stroke-width="6" x1="211.84609690826528" x2="198.8557158514987" y1="36.5" y2="29.0" /><polygon fill="black" points="227.00154147449297,42.75 214.0111604177264,35.250000000000014 214.0111604177264,99.00000000000001 227.00154147449297,106.5" stroke="none" /><polygon fill="black" points="227.00154147449297,42.75 239.99192253125955,35.250000000000014 227.00154147449297,27.750000000000014 214.0111604177264,35.250000000000014" stroke="none" /><polygon fill="white" points="227.00154147449297,42.75 239.99192253125955,35.250000000000014 239.99192253125955,99.00000000000001 227.00154147449297,106.5" stroke="none" /><polygon fill="black" points="211.84609690826528,36.5 198.8557158514987,29.0 198.8557158514987,44.0 211.84609690826528,51.5" stroke="none" /><polygon fill="black" points="211.84609690826528,36.5 255.14736709748723,11.500000000000014 242.15698604072065,4.000000000000014 198.8557158514987,29.0" stroke="none" /><polygon fill="white" points="227.00154147449297,42.75 239.99192253125955,35.250000000000014 239.99192253125955,99.00000000000001 227.00154147449297,106.5" stroke="none" /><polygon fill="white" points="211.84609690826528,36.5 255.14736709748723,11.500000000000014 255.14736709748723,26.500000000000014 211.84609690826528,51.5" stroke="none" /><line stroke="white" stroke-linecap="round" stroke-width="6" x1="255.14736709748723" x2="255.14736709748723" y1="11.500000000000014" y2="26.500000000000014" /><line stroke="white" stroke-linecap="round" stroke-width="6" x1="255.14736709748723" x2="211.84609690826528" y1="26.500000000000014" y2="51.5" /><line stroke="white" stroke-linecap="round" stroke-width="6" x1="211.84609690826528" x2="211.84609690826528" y1="36.5" y2="51.5" /><line stroke="white" stroke-linecap="round" stroke-width="6" x1="211.84609690826528" x2="255.14736709748723" y1="36.5" y2="11.500000000000014" /></svg>